<?xml version="1.0" encoding="UTF-8"?>
<svg width="188px" height="40px" viewBox="0 0 188 40" version="1.1" xmlns="http://www.w3.org/2000/svg" xmlns:xlink="http://www.w3.org/1999/xlink">
    <!-- Generator: Sketch 52.4 (67378) - http://www.bohemiancoding.com/sketch -->
    <title>marca copy</title>
    <desc>Created with Sketch.</desc>
    <style>


        #logo {
        -webkit-transition: all .5s ease-in-out;
        -moz-transition: all .5s ease-in-out;
        -o-transition: all .5s ease-in-out;
        -ms-transition: all .5s ease-in-out;    
        transition: all .5s ease-in-out;
    }
    @media (max-width: 170px) {
      #logo {
        fill: #58187D;
      }
    }

    </style>
    <g id="Page-1" stroke="none" stroke-width="1" fill="none" fill-rule="evenodd">
        <g id="marca-copy">
            <g id="logo" fill="#FFFFFF">
                <path d="M24.4484116,1.14583333 L17.4036689,1.14583333 L5.83346756,26.4916667 C8.49154362,25.8583333 11.69217,25.1375 15.4269351,24.3541667 L20.8734676,12.1375 L25.2348993,22.4208333 C27.7583893,21.9513889 30.4220731,21.475 33.2259508,20.9916667 L24.4484116,1.14583333 Z" id="Path"></path>
                <path d="M0,39.2708333 L8.78174497,39.2708333 L14.581566,26.25 C11.4973005,26.6611111 8.42004474,27.0930556 5.34979866,27.5458333 L0,39.2708333 Z" id="Path"></path>
                <path d="M26.2232662,24.8 L32.2291723,39.0083333 L41.1665324,39.0083333 L34.4876957,23.8791667 C31.7398956,24.1708333 28.9850858,24.4777778 26.2232662,24.8 Z" id="Path"></path>
                <path d="M44.4134228,19.2 C44.803626,14.3485395 48.1999142,10.2499973 52.9271626,8.92586561 C57.654411,7.6017339 62.7141238,9.33169754 65.6107383,13.2625 L70.9184787,7.5 C65.5826617,1.13456755 56.7913123,-1.23357471 48.9366028,1.57870094 C41.0818934,4.39097659 35.8499204,11.7799854 35.8545861,20.0541667 C35.8545861,20.2208333 35.8545861,20.3833333 35.854583,20.5458333 C38.5883669,20.0958333 41.4413125,19.6472222 44.4134228,19.2 Z" id="Path"></path>
                <path d="M56.1224161,31.7791667 C50.6917706,31.7703511 45.9714086,28.0836021 44.6952125,22.8541667 C41.8913348,23.1319444 39.0594183,23.4097222 36.1994631,23.6875 C37.6339214,31.243794 43.389449,37.2746668 50.9243976,39.1168773 C58.4593462,40.9590879 66.3862093,38.2734065 71.2044743,32.2458333 L65.6527964,26.9458333 C63.4462687,29.982524 59.8992341,31.781403 56.1224161,31.7791667 Z" id="Path"></path>
                <path d="M91.1610738,1.25 L82.6442953,1.25 L82.6442953,1.35416667 L71.2885906,1.35416667 L71.2885906,9.27083333 L82.6442953,9.27083333 L82.6442953,14.625 C85.4201342,14.3722222 88.2590604,14.1305556 91.1610738,13.9 L91.1610738,9.27083333 L102.516779,9.27083333 L102.516779,1.35416667 L91.1610738,1.35416667 L91.1610738,1.25 Z" id="Path"></path>
                <path d="M82.6442953,39.0625 L91.1610738,39.0625 L91.1610738,19.5458333 C88.3908427,19.6847222 85.5519165,19.8361111 82.6442953,20 L82.6442953,39.0625 Z" id="Path"></path>
                <path d="M103.463087,39.2708333 L111.87472,39.2708333 L111.87472,18.6916667 C109.195615,18.7791667 106.407159,18.8791667 103.463087,18.9958333 L103.463087,39.2708333 Z" id="Path"></path>
                <path d="M130.224698,28.5958333 L126.439463,18.3125 C123.945414,18.3625 121.224251,18.425 118.297002,18.5041667 L126.754899,39.5833333 L133.799642,39.5833333 L142.69915,18.125 C141.168233,18.125 138.270425,18.125 134.232841,18.1833333 L130.224698,28.5958333 Z" id="Path"></path>
                <path d="M140.739239,1.30416667 L136.768949,11.6125 C139.628904,11.5486111 142.526711,11.5 145.462371,11.4666667 L149.668188,1.30416667 L140.739239,1.30416667 Z" id="Path"></path>
                <path d="M124.109441,11.9875 L120.235884,1.45833333 L103.463087,1.45833333 L103.463087,13.0208333 C106.219299,12.8458333 109.023177,12.6833333 111.87472,12.5333333 L111.87472,2.5 L115.819776,12.3291667 C118.539538,12.2041667 121.302759,12.0902778 124.109441,11.9875 Z" id="Path"></path>
            </g>
            <path d="M160.112078,31.25 C158.992452,31.7276488 157.910629,32.2995436 156.876957,32.9602138 C158.594214,34.4927135 160.602479,35.6147588 162.765101,36.25 C161.673242,34.7165396 160.779727,33.0349471 160.108347,31.25 L160.112078,31.25 Z M157.15773,21.6666667 L150.988814,21.6666667 C151.175189,25.4133953 152.610313,28.9629677 155.031906,31.6666667 C156.300708,30.8689086 157.619917,30.1675101 158.979866,29.5676101 C157.966889,27.0651348 157.348626,24.398999 157.150413,21.6784591 L157.15773,21.6666667 Z M166.970917,29.5833333 C165.259318,29.7347872 163.567856,30.0677111 161.923937,30.5767108 C162.904888,32.8331994 164.163984,34.9529404 165.670767,36.8846578 C166.093588,37.0094066 166.530809,37.0762183 166.970917,37.0833333 L166.970917,29.5833333 Z M166.951886,21.6666667 L159.400447,21.6666667 C159.61171,24.0967658 160.164262,26.4826282 161.040906,28.75 C162.949762,28.0145722 164.942816,27.5347552 166.970917,27.3223817 L166.951886,21.6666667 Z M169.073826,29.5833333 L169.073826,37.0833333 C169.514022,37.0773252 169.951388,37.0104914 170.373975,36.8846578 C171.893019,34.9616748 173.153125,32.8402338 174.120805,30.5767108 C172.480724,30.062457 170.791195,29.7294191 169.081319,29.5833333 L169.073826,29.5833333 Z M155.028207,9.59119806 C152.61808,12.2978412 151.185611,15.8413008 150.988814,19.5833333 L157.152086,19.5833333 C157.383574,16.8765795 158.000015,14.224103 158.979866,11.7186066 C157.622468,11.1018499 156.304768,10.3885131 155.035518,9.58333333 L155.028207,9.59119806 Z M175.93699,31.25 C175.231317,33.0165407 174.339942,34.6937302 173.279642,36.25 C175.437821,35.6044127 177.443747,34.4877201 179.167785,32.9720903 C178.135266,32.3153578 177.056393,31.7435958 175.940738,31.2618765 L175.93699,31.25 Z M166.970917,13.943337 C164.945075,13.7099331 162.953994,13.2253133 161.040906,12.5 C160.150819,14.7624367 159.597751,17.1505284 159.400447,19.5833333 L166.970917,19.5833333 L166.970917,13.943337 Z M169.073826,21.6862231 L169.073826,27.3458494 C171.082629,27.5456043 173.057352,28.0176967 174.94727,28.75 C175.848638,26.4888341 176.42055,24.10169 176.644295,21.6666667 L169.073826,21.6862231 Z M160.056107,10 C160.76324,8.21811399 161.673261,6.53848522 162.765101,5 C160.60431,5.63553352 158.595882,6.76748059 156.876957,8.31854839 C157.895911,8.96488167 158.958661,9.5269701 160.056107,10 Z M178.891821,21.6666667 C178.715042,24.3940744 178.096746,27.0671673 177.064877,29.5651318 C178.427021,30.1560238 179.745069,30.8585968 181.007421,31.6666667 C183.420453,28.9596373 184.856234,25.4131924 185.055928,21.6666667 L178.891821,21.6666667 Z M166.970917,4.16666667 C166.536019,4.16848817 166.102731,4.2212026 165.679397,4.32379492 C164.174344,6.24539506 162.912427,8.35605088 161.923937,10.6050928 C163.564857,11.1425748 165.25674,11.4984427 166.970917,11.6666667 L166.970917,4.16666667 Z M169.073826,13.943337 L169.073826,19.5833333 L176.644295,19.5833333 C176.43536,17.145373 175.864021,14.755859 174.950653,12.5 C173.056559,13.2316407 171.08258,13.716446 169.073826,13.943337 Z M169.073826,4.16666667 L169.073826,11.6666667 C170.788655,11.5049548 172.481126,11.148963 174.120805,10.6050928 C173.129554,8.35493132 171.865704,6.24424212 170.359657,4.32379492 C169.938317,4.22043982 169.506853,4.167715 169.073826,4.16666667 Z M181.003819,9.58333333 C179.741122,10.3979757 178.424602,11.1116519 177.064877,11.7186066 C178.023686,14.2311243 178.638532,16.8803699 178.890151,19.5833333 L185.055928,19.5833333 C184.846656,15.8422713 183.413593,12.3020901 181.01112,9.59119806 L181.003819,9.58333333 Z M176.004175,10 C177.094391,9.52060302 178.151581,8.95870876 179.167785,8.31854839 C177.443217,6.78120072 175.437122,5.65056855 173.279642,5 C174.349971,6.55835122 175.263269,8.23441417 176.004175,10 Z M148.044743,20.6366811 C148.044743,9.8394795 156.882892,1.25 168.016808,1.25 C179.150725,1.25 188,9.83558581 188,20.6366811 C188,31.4377763 179.128472,40 168.016808,40 C156.890309,40 148.044743,31.4338826 148.044743,20.6366811 Z" id="Shape" fill="#FE812A" fill-rule="nonzero"></path>
        </g>
    </g>
</svg>