<?xml version="1.0" encoding="UTF-8" standalone="no"?>
<svg width="1368px" height="321px" viewBox="0 0 1368 321" version="1.1" xmlns="http://www.w3.org/2000/svg" xmlns:xlink="http://www.w3.org/1999/xlink">
    <!-- Generator: Sketch 43.2 (39069) - http://www.bohemiancoding.com/sketch -->
    <title>Artboard</title>
    <desc>Created with Sketch.</desc>
    <defs>
        <linearGradient x1="-0.0159498208%" y1="49.9551148%" x2="99.9146953%" y2="49.9551148%" id="linearGradient-1">
            <stop stop-color="#FFED00" offset="0%"></stop>
            <stop stop-color="#FBBA00" offset="100%"></stop>
        </linearGradient>
        <linearGradient x1="0.0427027027%" y1="49.9767105%" x2="99.9762162%" y2="49.9767105%" id="linearGradient-2">
            <stop stop-color="#FFED00" offset="0%"></stop>
            <stop stop-color="#FBBA00" offset="100%"></stop>
        </linearGradient>
        <linearGradient x1="-0.0175131349%" y1="50.0589947%" x2="100.042032%" y2="50.0589947%" id="linearGradient-3">
            <stop stop-color="#FFED00" offset="0%"></stop>
            <stop stop-color="#FBBA00" offset="100%"></stop>
        </linearGradient>
        <linearGradient x1="-0.0567243189%" y1="49.8456274%" x2="99.9190453%" y2="49.8456274%" id="linearGradient-4">
            <stop stop-color="#FFED00" offset="0%"></stop>
            <stop stop-color="#FBBA00" offset="100%"></stop>
        </linearGradient>
        <linearGradient x1="0.154225352%" y1="50.1062622%" x2="99.9711268%" y2="50.1062622%" id="linearGradient-5">
            <stop stop-color="#32A8CF" offset="0%"></stop>
            <stop stop-color="#5E8EBA" offset="100%"></stop>
        </linearGradient>
        <linearGradient x1="0.0225596529%" y1="50.07275%" x2="99.8498915%" y2="50.07275%" id="linearGradient-6">
            <stop stop-color="#32A8CF" offset="0%"></stop>
            <stop stop-color="#5E8EBA" offset="100%"></stop>
        </linearGradient>
        <linearGradient x1="0.0503460208%" y1="49.5311111%" x2="100.216955%" y2="49.5311111%" id="linearGradient-7">
            <stop stop-color="#32A8CF" offset="0%"></stop>
            <stop stop-color="#5E8EBA" offset="100%"></stop>
        </linearGradient>
        <linearGradient x1="0.0486891386%" y1="49.9292776%" x2="100.132584%" y2="49.9292776%" id="linearGradient-8">
            <stop stop-color="#FFED00" offset="0%"></stop>
            <stop stop-color="#FBBA00" offset="100%"></stop>
        </linearGradient>
        <linearGradient x1="-0.00125313283%" y1="49.9521822%" x2="99.9527569%" y2="49.9521822%" id="linearGradient-9">
            <stop stop-color="#32A8CF" offset="0%"></stop>
            <stop stop-color="#5E8EBA" offset="100%"></stop>
        </linearGradient>
        <linearGradient x1="0.133204633%" y1="49.9310302%" x2="100.040927%" y2="49.9310302%" id="linearGradient-10">
            <stop stop-color="#FFED00" offset="0%"></stop>
            <stop stop-color="#FBBA00" offset="100%"></stop>
        </linearGradient>
        <linearGradient x1="0.0517509728%" y1="50.1124224%" x2="100.065759%" y2="50.1124224%" id="linearGradient-11">
            <stop stop-color="#32A8CF" offset="0%"></stop>
            <stop stop-color="#5E8EBA" offset="100%"></stop>
        </linearGradient>
        <linearGradient x1="-0.156918239%" y1="50.0170213%" x2="99.8578616%" y2="50.0170213%" id="linearGradient-12">
            <stop stop-color="#32A8CF" offset="0%"></stop>
            <stop stop-color="#659ACA" offset="100%"></stop>
        </linearGradient>
        <linearGradient x1="0.0335347432%" y1="49.8904255%" x2="100.006647%" y2="49.8904255%" id="linearGradient-13">
            <stop stop-color="#E63312" offset="0%"></stop>
            <stop stop-color="#AE0F0A" offset="100%"></stop>
        </linearGradient>
        <linearGradient x1="0.19343832%" y1="50.0687697%" x2="100.054068%" y2="50.0687697%" id="linearGradient-14">
            <stop stop-color="#E63312" offset="0%"></stop>
            <stop stop-color="#AE0F0A" offset="100%"></stop>
        </linearGradient>
        <linearGradient x1="0.0761904762%" y1="50.0906931%" x2="100.099817%" y2="50.0906931%" id="linearGradient-15">
            <stop stop-color="#E63312" offset="0%"></stop>
            <stop stop-color="#AE0F0A" offset="100%"></stop>
        </linearGradient>
        <linearGradient x1="-0.0097733711%" y1="50.0001468%" x2="99.9927762%" y2="50.0001468%" id="linearGradient-16">
            <stop stop-color="#E63312" offset="0%"></stop>
            <stop stop-color="#AE0F0A" offset="100%"></stop>
        </linearGradient>
        <linearGradient x1="0.0505357143%" y1="50.0100629%" x2="99.9935714%" y2="50.0100629%" id="linearGradient-17">
            <stop stop-color="#E63312" offset="0%"></stop>
            <stop stop-color="#AE0F0A" offset="100%"></stop>
        </linearGradient>
        <linearGradient x1="-0.00799086758%" y1="50.0521809%" x2="99.8961187%" y2="50.0521809%" id="linearGradient-18">
            <stop stop-color="#E63312" offset="0%"></stop>
            <stop stop-color="#AE0F0A" offset="100%"></stop>
        </linearGradient>
    </defs>
    <g id="Page-1" stroke="none" stroke-width="1" fill="none" fill-rule="evenodd">
        <g id="Artboard" fill-rule="nonzero">
            <g id="logo_comutricolor" transform="translate(18.000000, 16.000000)">
                <g id="Isotipo" stroke="#FFFFFF" stroke-width="9">
                    <path d="M117.719937,253.864913 L131.2,272.4 C129.3,274.3 110.9,287.3 110.9,287.3 C93.3,282.3 72.8,265.3 72.8,265.3 C71.8,254.7 69.3,234.4 69.3,234.4 L81.477143,235.339284 C79.9212724,233.210481 79.2,231.9 79.2,231.9 L81.6,217.4 C109.5,229.6 119.5,228.1 119.5,228.1 C123.8,237.9 137.6,249.6 137.6,249.6 C135.019038,251.285526 125.834974,252.804588 117.719937,253.864913 Z M199.815721,187.323581 C198.382678,192.260516 197.014664,196.777722 196.025367,199.996261 L210,216.3 C202.6,231.9 188,245.4 187.9,245.4 C173.3,248 143.4,249.6 143.4,249.6 C132.5,239.3 124.6,223.6 124.6,223.6 L142.350696,197.83286 C141.895756,196.794008 141.432645,195.729036 140.967721,194.652501 L120.8,223.5 C89.9,219.9 78.6,211.9 78.6,211.9 C60.7,185.7 61.8,166.1 61.8,166.1 C72.3,150.7 85.2,138.7 85.2,138.7 L126.7,150 L132.789307,163.546997 L165.5,136.4 C165.5,136.4 176.3,141.3 186.5,146.8 C193.478346,150.588245 200.147503,154.59734 203.836119,156.88982 L206.1,145.1 L236.2,127.3 C250.4,140 256.9,152.8 256.9,152.8 C256.9,152.8 250.9,177.3 246.4,193.1 C240.7,202.8 216.2,211.9 216.2,211.9 L199.815721,187.323581 Z M236.830918,218.961295 C251.669342,212.319904 258,209.1 258,209.1 L268.7,232.1 C267,239.7 239.5,265.3 239.5,265.3 L208.3,262.3 C209.978691,258.582898 213.059196,246.742465 215.257261,237.855178 C209.564545,242.31806 205.3,245.4 205.3,245.4 L194.3,243.8 L215.1,216.5 C229,213.8 242.9,201.8 242.9,201.8 L243.7,209.2 C243.041408,211.736801 240.419364,215.189878 236.830918,218.961295 Z M115.2,41 L111,62.2 L77.6,89.5 L53.5,95.1 L55,85.5 C55,85.4 83,46.6 115.2,41 Z M154,76.4 L160.4,117.1 L128.5,147.7 L84.3,133.3 L81.5,95.1 L115.2,66.4 L154,76.4 Z M175.2,34.6 C215.3,37.7 245.5,79 245.4,79 L233.6,77.5 L195.9,52.6 L175.2,34.6 Z M163.9,116.9 L159.4,74.9 L188.8,58.5 C188.8,58.5 192.8,56 200.8,60.6 C213.5,67.7 230.6,81.8 230.6,81.8 C230.6,81.8 237.1,106.7 235.2,123.1 L202.8,141.8 L163.9,116.9 Z M264.3,137.4 C264.3,137.4 267.8,177.4 247.9,204.4 L247.9,196.7 C247.9,196.7 257.9,169 258.7,153.4 C258.7,153.4 263.1,153 264.3,137.4 Z M198.6,247.6 C169.7,264.6 125.2,255.4 125.2,255.5 C137.9,256.5 142.9,251.9 142.9,251.9 C172.7,254.5 187.7,246.5 187.7,246.5 L198.6,247.6 Z M73.8,228.6 C33.9,191.1 37.2,145.6 37.2,145.6 L56.1,169.1 C61.1,196.4 73.8,212 73.8,212 L73.8,228.6 Z M185.1,24.2 L154.2,43.4 L112.3,29.5 L120.2,5.4 C120.2,5.4 136.2,-0.6 164.5,1.1 L185.1,24.2 Z M282.6,68.6 C292.8,82.9 296.7,110.4 296.6,110.3 L278.9,136.1 C273.9,130.6 253.6,110.1 253.6,110.1 C254.5,103.8 257.1,66.4 257.1,66.4 L282.6,68.6 Z M46.4,85.9 C47.6,108.9 49.6,122.5 49.7,122.5 L19.3,154.2 L0.9,136.4 C2.2,119.5 16.3,94.9 16.3,94.9 L46.4,85.9 Z" id="Combined-Shape"></path>
                </g>
                <g id="Isotipo">
                    <path d="M115.2,41 L111,62.2 L77.6,89.5 L53.5,95.1 L55,85.5 C55,85.4 83,46.6 115.2,41 Z" id="Shape" fill="#FFED00"></path>
                    <path d="M57.3,86.4 C60.4,82.3 84.6,51 112.2,44.1 L108.9,60.9 L76.5,87.3 L56.4,92 L57.3,86.4 Z" id="Shape" fill="url(#linearGradient-1)"></path>
                    <polygon id="Shape" fill="#FFED00" points="154 76.4 115.2 66.4 81.5 95.1 84.3 133.3 128.5 147.7 160.4 117.1"></polygon>
                    <polygon id="Shape" fill="url(#linearGradient-2)" points="86.6 131.6 83.9 96.1 115.8 69 151.9 78.3 157.9 116.2 127.9 145"></polygon>
                    <path d="M175.2,34.6 L195.9,52.6 L233.6,77.5 L245.4,79 C245.5,79 215.3,37.7 175.2,34.6 Z" id="Shape" fill="#FFED00"></path>
                    <path d="M234.5,75.2 L197.4,50.7 L182.8,38.1 C209.9,43.7 231.6,66.2 239.9,75.9 L234.5,75.2 Z" id="Shape" fill="url(#linearGradient-3)"></path>
                    <path d="M163.9,116.9 L159.4,74.9 L188.8,58.5 C188.8,58.5 192.8,56 200.8,60.6 C213.5,67.7 230.6,81.8 230.6,81.8 C230.6,81.8 237.1,106.7 235.2,123.1 L202.8,141.8 L163.9,116.9 Z" id="Shape" fill="#FFED00"></path>
                    <path d="M166.1,115.5 L162,76.2 L190.1,60.5 C190.2,60.5 190.9,60.2 192.1,60.2 C193.6,60.2 196.1,60.6 199.6,62.7 C210.6,68.9 225.3,80.6 228.5,83.2 C229.5,87.3 234.3,107.6 233,121.8 L202.9,139.1 L166.1,115.5 Z" id="Shape" fill="url(#linearGradient-4)"></path>
                    <path d="M264.3,137.4 C264.3,137.4 267.8,177.4 247.9,204.4 L247.9,196.7 C247.9,196.7 257.9,169 258.7,153.4 C258.7,153.4 263.1,153 264.3,137.4 Z" id="Shape" fill="#32A8CF"></path>
                    <path d="M249,196.9 C250,194.2 258.7,169.4 259.8,154.2 C260.7,153.7 262,152.5 263.2,149.4 C262.7,162.4 260,183.6 249,200.5 L249,196.9 Z" id="Shape" fill="url(#linearGradient-5)"></path>
                    <path d="M242.9,201.8 C242.9,201.8 229,213.8 215.1,216.5 L194.3,243.8 L205.3,245.4 C205.3,245.4 241,219.6 243.7,209.2 L242.9,201.8 Z" id="Shape" fill="#32A8CF"></path>
                    <path d="M196.5,242.9 L215.8,217.6 C227,215.3 237.9,207.4 242,204.1 L242.6,209 C240.1,217.2 215.1,236.8 205.1,244.1 L196.5,242.9 Z" id="Shape" fill="url(#linearGradient-6)"></path>
                    <path d="M198.6,247.6 L187.7,246.5 C187.7,246.5 172.7,254.5 142.9,251.9 C142.9,251.9 137.9,256.5 125.2,255.5 C125.2,255.4 169.7,264.6 198.6,247.6 Z" id="Shape" fill="#32A8CF"></path>
                    <path d="M152.8,256.7 C146.8,256.7 141.3,256.3 136.8,255.9 C140.4,255 142.5,253.7 143.3,253.1 C147.1,253.4 150.9,253.6 154.5,253.6 L154.5,253.6 C174.8,253.6 185.9,248.7 187.9,247.7 L194.6,248.4 C183.7,253.9 169.6,256.7 152.8,256.7 L152.8,256.7 Z" id="Shape" fill="url(#linearGradient-7)"></path>
                    <path d="M256.9,152.8 C256.9,152.8 250.4,140 236.2,127.3 L206.1,145.1 L198.4,185.2 L216.2,211.9 C216.2,211.9 240.7,202.8 246.4,193.1 C250.9,177.3 256.9,152.8 256.9,152.8 Z" id="Shape" fill="#FFED00"></path>
                    <path d="M200.9,184.8 L208.2,146.7 L235.8,130.3 C246.8,140.4 252.8,150.4 254.3,153.2 C253.2,157.7 248.1,178.3 244.2,192.3 C240,199 224.6,206.2 217.1,209.2 L200.9,184.8 Z" id="Shape" fill="url(#linearGradient-8)"></path>
                    <path d="M210,216.3 L190.2,193.2 L146.3,192.1 L124.6,223.6 C124.6,223.6 132.5,239.3 143.4,249.6 C143.4,249.6 173.3,248 187.9,245.4 C188,245.4 202.6,231.9 210,216.3 Z" id="Shape" fill="#32A8CF"></path>
                    <path d="M144.3,247.2 C135.9,239 129.4,227.5 127.4,223.8 L147.6,194.5 L189.1,195.5 L207.2,216.6 C200.7,229.4 189.4,240.7 186.9,243.1 C173.9,245.4 149.6,246.9 144.3,247.2 Z" id="Shape" fill="url(#linearGradient-9)"></path>
                    <path d="M126.7,150 L85.2,138.7 C85.2,138.7 72.3,150.7 61.8,166.1 C61.8,166.1 60.7,185.7 78.6,211.9 C78.6,211.9 89.9,219.9 120.8,223.5 L144.5,189.6 L126.7,150 Z" id="Shape" fill="#FFED00"></path>
                    <path d="M119.7,221.1 C93.7,217.9 82.3,211.5 80.3,210.3 C65,187.8 64.1,170.4 64.1,167 C72.6,154.6 82.7,144.5 85.8,141.5 L125,152 L141.8,189.4 L119.7,221.1 Z" id="Shape" fill="url(#linearGradient-10)"></path>
                    <path d="M119.5,228.1 C119.5,228.1 109.5,229.6 81.6,217.4 L79.2,231.9 C79.2,231.9 86.3,244.8 104,255.4 C104,255.4 132.7,252.8 137.6,249.6 C137.6,249.6 123.8,237.9 119.5,228.1 Z" id="Shape" fill="#32A8CF"></path>
                    <path d="M104.6,251.4 C90.4,242.7 83.4,232.5 81.7,229.8 L83.4,219.2 C103.7,227.8 114.2,228.9 118,229 C121.6,236 129,243.4 133.1,247.2 C126.8,248.9 113.5,250.6 104.6,251.4 Z" id="Shape" fill="url(#linearGradient-11)"></path>
                    <path d="M73.8,228.6 L73.8,212 C73.8,212 61.1,196.4 56.1,169.1 L37.2,145.6 C37.2,145.6 33.9,191.1 73.8,228.6 Z" id="Shape" fill="#32A8CF"></path>
                    <path d="M71.5,222.9 C45.2,195.9 40.5,165.5 39.7,152.4 L54,170.1 C58.6,194.5 69,209.4 71.5,212.8 L71.5,222.9 Z" id="Shape" fill="url(#linearGradient-12)"></path>
                    <path d="M185.1,24.2 L154.2,43.4 L112.3,29.5 L120.2,5.4 C120.2,5.4 136.2,-0.6 164.5,1.1 L185.1,24.2 Z" id="Shape" fill="#E63312"></path>
                    <path d="M115.3,28 L122.1,7.3 C125.5,6.3 136.9,3.2 154.7,3.2 C157.6,3.2 160.5,3.3 163.4,3.4 L181.5,23.7 L153.9,40.8 L115.3,28 Z" id="Shape" fill="url(#linearGradient-13)"></path>
                    <path d="M282.6,68.6 L257.1,66.4 C257.1,66.4 254.5,103.8 253.6,110.1 C253.6,110.1 273.9,130.6 278.9,136.1 L296.6,110.3 C296.7,110.4 292.8,82.9 282.6,68.6 Z" id="Shape" fill="#E63312"></path>
                    <path d="M278.7,132.3 C272.6,125.8 259.5,112.6 256.1,109.2 C256.9,101.8 258.7,76.9 259.3,68.9 L281.3,70.8 C289.6,83.3 293.4,105.1 294.2,109.7 L278.7,132.3 Z" id="Shape" fill="url(#linearGradient-14)"></path>
                    <path d="M258,209.1 C258,209.1 246.4,215 217.8,227.3 C217.8,227.3 211.1,256.1 208.3,262.3 L239.5,265.3 C239.5,265.3 267,239.7 268.7,232.1 L258,209.1 Z" id="Shape" fill="#E63312"></path>
                    <path d="M211.6,260.2 C214.4,251.8 218.7,233.8 219.8,229 C240.6,220.1 252.3,214.5 256.9,212.3 L266.2,232.2 C263.9,237.8 248.7,253.4 238.7,262.8 L211.6,260.2 Z" id="Shape" fill="url(#linearGradient-15)"></path>
                    <path d="M186.5,146.8 C176.3,141.3 165.5,136.4 165.5,136.4 L131.4,164.7 C131.4,164.7 130.7,169 133.9,177.5 C137.1,186 145.3,204.9 147.8,209.7 C147.8,209.7 185.6,208.2 194.5,204.9 C194.5,204.9 205.5,170.2 206.8,158.8 C206.8,158.7 197,152.5 186.5,146.8 Z" id="Shape" fill="#E63312"></path>
                    <path d="M149.2,207.2 C146.2,201.1 139,184.5 136.1,176.6 C134,170.9 133.7,167.3 133.7,165.8 L165.9,139.1 C169.1,140.6 177.5,144.6 185.4,148.8 C193.5,153.2 201.3,158 204.3,159.9 C202.6,170.9 194.5,197.1 192.7,202.9 C184.6,205.3 160.1,206.7 149.2,207.2 Z" id="Shape" fill="url(#linearGradient-16)"></path>
                    <path d="M105.6,237.2 L69.3,234.4 C69.3,234.4 71.8,254.7 72.8,265.3 C72.8,265.3 93.3,282.3 110.9,287.3 C110.9,287.3 129.3,274.3 131.2,272.4 L105.6,237.2 Z" id="Shape" fill="#E63312"></path>
                    <path d="M110.4,284.7 C95.5,280.1 78.7,267.1 74.9,264.1 C74.1,255.9 72.6,242.8 71.9,237 L104.3,239.5 L127.9,272 C124.4,274.7 116.2,280.6 110.4,284.7 Z" id="Shape" fill="url(#linearGradient-17)"></path>
                    <path d="M46.4,85.9 L16.3,94.9 C16.3,94.9 2.2,119.5 0.9,136.4 L19.3,154.2 L49.7,122.5 C49.6,122.5 47.6,108.9 46.4,85.9 Z" id="Shape" fill="#E63312"></path>
                    <path d="M3.3,135.5 C4.9,121.1 15.5,101.2 17.9,96.9 L44.2,89 C45.2,106.4 46.6,118.1 47.1,121.7 L19.2,150.9 L3.3,135.5 Z" id="Shape" fill="url(#linearGradient-18)"></path>
                </g>
                <g id="Logotipo" transform="translate(333.000000, 87.000000)" fill="#FFFFFF">
                    <path d="M52.2,29.1 C52.2,13.9 48,6.4 30.5,6.4 C8.6,6.4 7.1,18.7 7.1,36.1 L7.1,74.4 C7.1,92.9 8.6,103.8 30.5,103.8 C48.6,103.8 51.7,96.6 52.4,81.1 L58.8,81.1 C58.1,100.5 52.7,110.2 30.5,110.2 C5.8,110.2 0.3,98.9 0.3,74.7 L0.3,36.6 C0.3,12.6 5.5,0.2 30.5,0.2 C52.5,0.2 58.8,9.5 58.8,29.1 L52.2,29.1 Z" id="Shape"></path>
                    <path d="M69.7,79.7 L69.7,57.4 C69.7,34.4 77.9,27 95.5,27 C113.1,27 121.3,33.8 121.3,57.8 L121.3,79.7 C121.3,102.3 113.1,110.2 95.5,110.2 C77.9,110.2 69.7,103.4 69.7,79.7 Z M114.3,79.4 L114.3,57.8 C114.3,40.2 111.5,33.5 95.5,33.5 C80.4,33.5 76.7,40.3 76.7,57.5 L76.7,79.1 C76.7,96.7 79.5,103.8 95.5,103.8 C110.6,103.8 114.3,96.6 114.3,79.4 Z" id="Shape"></path>
                    <path d="M138.2,28.3 L144.6,28.3 L145.3,34.9 C149.6,29 156.4,26.8 165.4,26.8 C177.4,26.8 184.4,31.8 187.3,38.8 C194,28.6 201.8,26.8 210.7,26.8 C230.6,26.8 235.7,37.4 235.7,56.6 L235.7,109.3 L228.7,109.3 L228.7,56.5 C228.7,39.2 225.4,33.2 210,33.2 C194.8,33.2 190.3,42.7 190.3,54.4 L190.3,109.3 L183.3,109.3 L183.3,56.5 C183.3,41.3 180,33.2 164.6,33.2 C149.4,33.2 145.1,40.3 145.1,51.7 L145.1,109.3 L138.1,109.3 L138.1,28.3 L138.2,28.3 Z" id="Shape"></path>
                    <path d="M300.7,109.3 L300.1,100.4 C296.3,106.4 289.6,110.6 279.6,110.6 C260.5,110.6 254.6,102 254.6,80.9 L254.6,28.3 L261.6,28.3 L261.6,80.9 C261.6,99 265.6,104.5 280.3,104.5 C294.9,104.5 299.8,94.3 299.8,85 L299.8,28.4 L306.8,28.4 L306.8,109.4 L300.7,109.4 L300.7,109.3 Z" id="Shape"></path>
                    <g id="Group" transform="translate(316.000000, 0.000000)">
                        <polygon id="Shape" points="54.1 0.7 0.3 0.7 0.3 9.1 22.8 9.1 22.8 110.2 31.7 110.2 31.7 9.1 54.1 9.1"></polygon>
                        <path d="M54.9,33.6 L54.6,26 L46.5,26 L46.5,110.2 L55.4,110.2 L55.5,51.3 C55.5,46 57.5,41.3 61.1,38.2 C64.8,35 70,33.7 75.7,34.6 L76.8,34.8 L76.8,26.3 L76,26.2 C66.4,24.5 58.9,28.4 54.9,33.6 Z" id="Shape"></path>
                        <rect id="Rectangle-path" x="89.3" y="26.1" width="8.7" height="84.2"></rect>
                        <path d="M93.5,0.5 C90.4,0.5 87.3,2.5 87.3,6.4 C87.3,10.3 90.4,12.3 93.4,12.3 C96.5,12.3 99.6,10.3 99.6,6.4 C99.5,2.5 96.5,0.5 93.5,0.5 Z" id="Shape"></path>
                        <path d="M157.4,85 C157.1,96.3 154.2,102.5 139.5,102.5 C124.3,102.5 121.6,94.9 121.6,79.1 L121.6,57.9 C121.6,40.7 126.2,34.9 140,34.9 C153.4,34.9 156.5,41.3 157,50.9 L157,51.8 L165.5,51.8 L165.5,50.8 C164.7,33.7 157.1,26.5 140,26.5 C120.9,26.5 112.7,35.9 112.7,58 L112.7,79.6 C112.7,101.9 120.7,111.4 139.4,111.4 C157.1,111.4 165.7,102.8 165.7,85.2 L165.7,84.2 L157.3,84.2 L157.4,85 Z" id="Shape"></path>
                        <path d="M203.5,26.1 C184.5,26.1 176.8,35.2 176.8,57.4 L176.8,79.7 C176.8,102.4 184.3,111.2 203.5,111.2 C222.5,111.2 230.2,102.1 230.2,79.7 L230.2,57.8 C230.3,34.7 223,26.1 203.5,26.1 Z M203.5,102.9 C188.3,102.9 185.6,96.7 185.6,79.2 L185.6,57.6 C185.6,40 189.8,34.6 203.5,34.6 C218.8,34.6 221.4,40.4 221.4,57.9 L221.4,79.5 C221.4,97.2 217.1,102.9 203.5,102.9 Z" id="Shape"></path>
                        <path d="M253.6,86.8 L253.6,0.7 L244.7,0.7 L244.7,86.4 C244.7,96.2 245.5,103 249.6,106.9 C252.2,109.4 256.2,110.5 262.1,110.5 C263.2,110.5 264.5,110.5 265.8,110.4 L266.7,110.3 L266.7,102.2 L265.7,102.2 C255.3,102.2 253.6,101.1 253.6,86.8 Z" id="Shape"></path>
                        <path d="M302.2,26.1 C283.2,26.1 275.5,35.2 275.5,57.4 L275.5,79.7 C275.5,102.4 283,111.2 302.2,111.2 C321.2,111.2 328.9,102.1 328.9,79.7 L328.9,57.8 C329,34.7 321.7,26.1 302.2,26.1 Z M320.1,57.8 L320.1,79.4 C320.1,97.1 315.8,102.8 302.2,102.8 C287,102.8 284.3,96.6 284.3,79.1 L284.3,57.5 C284.3,39.9 288.5,34.5 302.2,34.5 C317.5,34.5 320.1,40.3 320.1,57.8 Z" id="Shape"></path>
                        <path d="M350.5,33.6 L350.2,26 L342.1,26 L342.1,110.2 L351,110.2 L351.1,51.3 C351.1,46 353.1,41.3 356.7,38.2 C360.4,35 365.6,33.7 371.3,34.6 L372.4,34.8 L372.4,26.3 L371.6,26.2 C361.9,24.5 354.4,28.4 350.5,33.6 Z" id="Shape"></path>
                        <path d="M387.2,98.7 C384.1,98.7 381,100.7 381,104.6 C381,106.4 381.7,108 382.9,109.1 C384,110 385.5,110.6 387,110.6 C390.1,110.6 393.2,108.6 393.2,104.7 C393.2,100.8 390.2,98.7 387.2,98.7 Z" id="Shape"></path>
                        <path d="M447.5,85 C447.2,96.3 444.3,102.5 429.6,102.5 C414.4,102.5 411.7,94.9 411.7,79.1 L411.7,57.9 C411.7,40.7 416.3,34.9 430.1,34.9 C443.5,34.9 446.6,41.3 447.1,50.9 L447.1,51.8 L455.6,51.8 L455.6,50.8 C454.8,33.7 447.2,26.5 430.1,26.5 C411,26.5 402.8,35.9 402.8,58 L402.8,79.6 C402.8,101.9 410.8,111.4 429.5,111.4 C447.2,111.4 455.8,102.8 455.8,85.2 L455.8,84.2 L447.4,84.2 L447.5,85 Z" id="Shape"></path>
                        <path d="M493.6,26.1 C474.6,26.1 466.9,35.2 466.9,57.4 L466.9,79.7 C466.9,102.4 474.4,111.2 493.6,111.2 C512.6,111.2 520.3,102.1 520.3,79.7 L520.3,57.8 C520.4,34.7 513.1,26.1 493.6,26.1 Z M493.6,102.9 C478.4,102.9 475.7,96.7 475.7,79.2 L475.7,57.6 C475.7,40 479.9,34.6 493.6,34.6 C508.9,34.6 511.5,40.4 511.5,57.9 L511.5,79.5 C511.5,97.2 507.2,102.9 493.6,102.9 Z" id="Shape"></path>
                        <path d="M608.8,25.8 C600.8,25.8 592.5,27.2 585.5,36.8 C581.8,29.7 574,25.8 563.5,25.8 C554.6,25.8 548.4,27.9 544.1,32.5 L543.6,27.3 L535.4,27.3 L535.4,110.2 L544.3,110.2 L544.3,51.7 C544.3,39.2 549.7,34.1 562.9,34.1 C577.8,34.1 580.6,41.9 580.6,56.4 L580.6,110.2 L589.5,110.2 L589.5,54.3 C589.5,40.7 595.6,34.1 608.2,34.1 C622.3,34.1 625.9,38.7 625.9,56.4 L625.9,110.2 L634.8,110.2 L634.8,56.6 C634.7,38.1 630.3,25.8 608.8,25.8 Z" id="Shape"></path>
                    </g>
                    <path d="M977.5,77.9 C998.1,77.9 998.1,109.7 977.5,109.7 C957.2,109.7 957.2,77.9 977.5,77.9 Z M977.5,107.9 C995.8,107.9 995.8,79.8 977.5,79.8 C959.5,79.7 959.5,107.9 977.5,107.9 Z M985,96.5 C985,101.7 983.7,104.3 977.8,104.3 C971.9,104.3 970.5,101.7 970.5,96.5 L970.5,91.2 C970.5,85.9 971.7,83.4 977.8,83.4 C983.6,83.4 985,85.9 985,91.2 L983.4,91.2 C983.4,87.4 982.5,85 977.8,85 C972.3,85 972.1,87.4 972.1,91.7 L972.1,95.9 C972.1,100.2 972.3,102.6 977.8,102.6 C982.6,102.6 983.4,100.5 983.4,96.5 L985,96.5 L985,96.5 Z" id="Shape"></path>
                </g>
            </g>
        </g>
    </g>
</svg>