<?xml version="1.0" encoding="UTF-8"?>
<svg width="206px" height="44px" viewBox="0 0 206 44" version="1.1" xmlns="http://www.w3.org/2000/svg" xmlns:xlink="http://www.w3.org/1999/xlink">
    <!-- Generator: Sketch 55.2 (78181) - https://sketchapp.com -->
    <title>Capa_2_1_</title>
    <desc>Created with Sketch.</desc>
    <g id="Page-1" stroke="none" stroke-width="1" fill="none" fill-rule="evenodd">
        <g id="fayerwayer_with-bg" transform="translate(-26.000000, -28.000000)" fill="#FFFFFF" fill-rule="nonzero">
            <g id="Capa_2_1_" transform="translate(26.000000, 28.000000)">
                <g id="Layer_1">
                    <path d="M200.3,21.2 C203.3,21.2 205.8,23.5 206,26.5 C205.8,29.5 203.3,31.9 200.3,31.8 C197.3,31.8 195.5,29.4 195.4,26.5 C195.3,23.6 197.3,21.2 200.3,21.2 L200.3,21.2 Z M200.5,22.6 C198.5,22.6 197.2,24.3 197.2,26.5 C197.2,28.7 198.5,30.4 200.6,30.4 C202.8,30.3 204.4,28.4 204.3,26.3 C204.1,24.3 202.5,22.8 200.5,22.6 L200.5,22.6 Z M200.1,29 L198.6,29 C198.7,27.4 198.7,25.8 198.6,24.3 C199.3,24.2 199.9,24.1 200.6,24.1 C201.2,24 201.9,24.2 202.5,24.5 C202.9,24.7 203.1,25.1 203.1,25.5 C203.1,25.9 202.7,26.4 202,26.6 L202,26.7 C202.5,26.9 202.9,27.4 203,27.9 C203,28.3 203.1,28.7 203.2,29 L201.6,29 C201.5,28.7 201.4,28.4 201.3,28.1 C201.3,27.6 201,27.4 200.6,27.4 L200.1,27.4 C200.1,27.9 200.1,28.4 200.1,29 L200.1,29 Z M200.2,26.3 L200.6,26.3 C201.1,26.3 201.3,26.1 201.3,25.8 C201.3,25.5 201,25.3 200.6,25.3 C200.4,25.3 200.3,25.3 200.2,25.3 C200.2,25.6 200.2,25.9 200.2,26.3 Z" id="Shape"></path>
                    <path d="M4.9,0.5 L19.2,0.5 C19.1,2.6 19,4.7 18.9,6.8 L11.9,6.8 C11.7,9.3 11.4,11.7 11.1,14.2 L17.9,14.2 C17.6,16.2 17.3,18.2 17,20.2 L10.3,20.2 C9.5,24.5 8.5,28.9 7.3,33.2 L0,33.2 C3,22.5 4.6,11.5 4.9,0.5 Z" id="Path"></path>
                    <path d="M29.9,33.1 C30.1,31.9 30.2,30.6 30.3,29.3 L30.1,29.3 C28.2,32.1 25.7,33.5 23.8,33.5 C20,33.5 18.7,30.3 18.8,26.1 C19.2,18.9 21.7,8.8 32.3,8.8 C34.7,8.8 37.1,9.2 39.5,9.9 C39.1,14.3 38.4,18.7 37.5,23 C37,25.6 36.3,30.5 36.1,33 L29.9,33.1 Z M32,14.3 C31.6,14.2 31.2,14.2 30.8,14.2 C27.4,14.2 25.9,21.9 25.8,24.6 C25.8,26.3 25.9,27.7 27.3,27.7 C28.7,27.7 29.9,25.9 30.7,21.7 C31.3,19.2 31.7,16.7 32,14.3 Z" id="Shape"></path>
                    <path d="M48.8,9.3 C49.1,12.8 49.3,16.4 49.3,19.9 C49.4,21.7 49.3,23.6 49.2,25.4 L49.3,25.4 C49.8,23.5 50.2,22 51,19.3 C51.9,15.9 52.8,12.6 53.5,9.2 L60.6,9.2 C58.6,15.5 56.2,21.7 53.4,27.7 C51.2,32.6 48.1,36.9 44.2,40.5 C42.8,41.7 41.2,42.7 39.5,43.4 C38.9,41.5 38.3,39.6 37.5,37.6 C38.6,37.1 39.7,36.5 40.7,35.8 C42,35 43.2,33.9 44,32.6 C44.2,32.3 44.2,32 44.2,31.7 C43.9,24.1 42.9,16.6 41.3,9.2 L48.8,9.2 L48.8,9.3 Z" id="Path"></path>
                    <path d="M75.1,32.1 C72.7,33 70.2,33.4 67.6,33.3 C61.4,33.3 59.3,29.4 59.4,24.2 C59.6,17.1 62.7,8.8 70.6,8.8 C74.6,8.7 77.9,11.8 78,15.7 C78,15.7 78,15.7 78,15.7 C78.3,22.5 72.8,25 66.2,24.7 C66.1,25.4 66.4,26.1 66.9,26.6 C67.7,27.4 68.8,27.8 70,27.8 C71.8,27.8 73.5,27.4 75.1,26.6 C75.2,28.5 75.2,30.3 75.1,32.1 Z M71.8,16.5 C71.8,15.3 71.2,14.6 70.2,14.6 C68.5,14.6 67.2,16.8 66.9,19.5 C69.8,19.6 71.9,18.4 71.8,16.5 L71.8,16.5 Z" id="Shape"></path>
                    <path d="M77.4,33.1 C78.9,27.8 80.1,22.4 80.9,16.9 C81.3,14.4 81.5,11.7 81.6,9.3 L87.7,9.3 C87.7,10.5 87.7,11.8 87.7,13.1 L87.9,13.1 C89.5,10.1 91.6,8.9 93.4,8.9 C93.8,8.9 94.2,8.9 94.5,9 C94.3,11.4 94,13.7 93.7,16.1 C93.3,16 92.9,16 92.5,16 C90,16 87.8,18.5 87,22.7 C86.3,26.2 85.5,29.6 84.5,33.1 L77.4,33.1 Z" id="Path"></path>
                    <path d="M95.3,33.1 C96.7,22.3 96.7,11.3 95.3,0.5 L102.7,0.5 C103,4.7 103.1,8.9 102.9,13.1 C102.8,16.9 102.5,20.8 101.9,24.6 L102,24.6 C103,20.7 104.1,17.4 105.1,13.9 C106.4,9.4 107.5,5 108.3,0.6 L114.8,0.6 C115.3,4.7 115.5,8.9 115.6,13.1 C115.7,17 115.5,20.8 115,24.7 L115.1,24.7 C116.1,20.8 117.1,17 117.8,13.6 C118.7,9.3 119.4,5 119.9,0.6 L126.9,0.6 C124.9,11.8 121.6,22.7 117.1,33.2 L109.4,33.2 C109.6,30.6 109.8,28.1 109.9,25.5 C110.1,21.4 110.2,17.2 110.4,13.8 L110.4,13.8 C109.3,18.2 107.8,22.4 105.9,26.5 C104.8,28.7 103.7,31 102.5,33.2 L95.3,33.2 L95.3,33.1 Z" id="Path"></path>
                    <path d="M136.2,33.1 C136.4,31.9 136.5,30.6 136.6,29.3 L136.4,29.3 C134.5,32.1 132,33.5 130.1,33.5 C126.3,33.5 125,30.3 125.1,26.1 C125.5,18.9 128,8.8 138.6,8.8 C141,8.8 143.4,9.2 145.8,9.9 C145.4,14.3 144.7,18.7 143.8,23 C143.3,25.6 142.6,30.5 142.3,33 L136.2,33.1 Z M138.3,14.3 C137.9,14.2 137.5,14.2 137.1,14.2 C133.7,14.2 132.2,21.9 132.1,24.6 C132.1,26.3 132.2,27.7 133.6,27.7 C135,27.7 136.2,25.9 137,21.7 C137.5,19.2 138,16.7 138.3,14.3 Z" id="Shape"></path>
                    <path d="M155,9.3 C155.3,12.8 155.5,16.4 155.5,19.9 C155.6,21.7 155.5,23.6 155.4,25.4 L155.5,25.4 C156,23.5 156.4,22 157.2,19.3 C158.1,15.9 158.9,12.6 159.7,9.2 L166.8,9.2 C164.8,15.5 162.4,21.7 159.6,27.7 C157.4,32.6 154.3,36.9 150.4,40.5 C149,41.7 147.4,42.7 145.7,43.4 C145.1,41.5 144.4,39.6 143.7,37.6 C144.8,37.1 145.9,36.5 146.9,35.8 C148.2,35 149.4,33.9 150.2,32.6 C150.4,32.3 150.4,32 150.4,31.7 C150.1,24.1 149.1,16.6 147.5,9.2 L155,9.2 L155,9.3 Z" id="Path"></path>
                    <path d="M181.4,32.1 C179,33 176.5,33.4 173.9,33.3 C167.7,33.3 165.6,29.4 165.7,24.2 C165.9,17.1 169,8.8 176.9,8.8 C180.9,8.6 184.2,11.7 184.3,15.7 C184.3,15.7 184.3,15.7 184.3,15.8 C184.6,22.6 179.1,25.1 172.5,24.8 C172.4,25.5 172.7,26.2 173.2,26.7 C174,27.5 175.1,27.9 176.3,27.9 C178.1,27.9 179.8,27.5 181.4,26.7 C181.4,28.5 181.4,30.3 181.4,32.1 Z M178.1,16.5 C178,15.3 177.5,14.6 176.5,14.6 C174.8,14.6 173.5,16.8 173.2,19.5 C176.1,19.6 178.2,18.4 178.1,16.5 L178.1,16.5 Z" id="Shape"></path>
                    <path d="M183.7,33.1 C185.2,27.8 186.4,22.4 187.2,16.9 C187.6,14.4 187.8,11.7 187.9,9.3 L194,9.3 C194,10.5 194,11.8 194,13.1 L194.2,13.1 C195.8,10.1 197.9,8.9 199.7,8.9 C200.1,8.9 200.5,8.9 200.8,9 C200.6,11.4 200.3,13.7 200,16.1 C199.6,16 199.2,16 198.8,16 C196.3,16 194.1,18.5 193.3,22.7 C192.6,26.2 191.8,29.6 190.8,33.1 L183.7,33.1 Z" id="Path"></path>
                </g>
            </g>
        </g>
    </g>
</svg>