<?xml version="1.0" encoding="UTF-8"?>
<svg width="211px" height="42px" viewBox="0 0 211 42" version="1.1" xmlns="http://www.w3.org/2000/svg" xmlns:xlink="http://www.w3.org/1999/xlink">
    <!-- Generator: Sketch 55.2 (78181) - https://sketchapp.com -->
    <title>ferplei_dark-bg</title>
    <desc>Created with Sketch.</desc>
    <g id="Page-1" stroke="none" stroke-width="1" fill="none" fill-rule="evenodd">
        <g id="Artboard" transform="translate(0.000000, -5.000000)" fill-rule="nonzero">
            <g id="ferplei_dark-bg" transform="translate(0.000000, 5.000000)">
                <path d="M43.5,11.5 L39.9,31.8 L46.2,31.8 L47.5,24.4 L59,24.4 L63.7,19.5 L48.4,19.5 L48.9,16.9 L61.3,16.9 L66.3,11.6 L43.5,11.5 L43.5,11.5 Z M71.9,26.6 L72.4,23.8 L84.9,23.8 L89.3,19.2 L73.3,19.2 L73.7,16.8 L86.8,16.8 L91.8,11.5 L68.3,11.5 L64.7,31.8 L84.2,31.8 L89.2,26.6 L71.9,26.6 Z M116.1,27.8 C115.4,26.8 114.6,26 113.8,25.1 C117.5,24.5 120.3,21.4 120.3,17.6 C120.3,12.8 115.3,11.5 111,11.5 L98,11.5 L93,16.8 L110.6,16.8 C112.5,16.8 113.7,17.5 113.7,18.8 C113.7,20.4 111.9,21.4 109.8,21.4 L92.2,21.4 L90.4,31.8 L96.7,31.8 L97.6,26.4 L107.2,26.4 L110.8,31.8 L119.2,31.8 L116.1,27.8 Z M150.5,18 C150.5,14.1 147.4,11.5 141.8,11.5 L129.1,11.5 L124,16.8 L141.4,16.8 C143.2,16.8 144.1,17.6 144.1,18.7 C144.1,20.3 142.8,21.4 140.6,21.4 L123.2,21.4 L121.4,31.8 L127.6,31.8 L128.5,26.6 L139.1,26.6 C146.1,26.6 150.5,23.1 150.5,18 L150.5,18 Z M158.5,26.6 L161.2,11.5 L155,11.5 L151.4,31.8 L169.3,31.8 L174.3,26.6 L158.5,26.6 Z M182.6,26.6 L183.1,23.8 L195.6,23.8 L200,19.2 L184,19.2 L184.4,16.8 L197.5,16.8 L202.5,11.5 L179,11.5 L175.4,31.8 L194.9,31.8 L199.9,26.6 L182.6,26.6 Z M211,11.5 L204.8,11.5 L201.2,31.8 L207.5,31.8 L211,11.5 Z" id="Trazado_213" fill="#FFFFFF"></path>
                <path d="M36.2,17 C36,19.4 32.8,20.8 30.9,22 C30.1,22.7 29,22.7 28.2,22 C23.8,18.2 28.8,15.6 31.9,13.5 C34.1,11.8 36.4,14.6 36.2,17 Z" id="Trazado_192" fill="#77BDD9"></path>
                <path d="M1.1,24.3 C1.4,21.9 2.1,19.6 3.2,17.5 C4.5,18.8 4.6,20.6 4.7,22.3 L4.7,22.3 L4.6,22.3 L4.6,22.3 C3.4,25.6 3.2,29.2 4,32.6 C2.4,30.3 1.3,27.4 1.1,24.3 Z" id="Trazado_194" fill="#BF2C47"></path>
                <path d="M19.8,0.5 C21.4,0.4 21.8,1.8 20.2,2.5 C19.2,3.2 16.5,2.5 18,1.1 C18.6,0.7 19.2,0.5 19.8,0.5 Z" id="Trazado_195" fill="#EF3F2E"></path>
                <path d="M10.7,33.5 C11.3,29.9 13.9,27.2 16.5,24.8 C16.4,22.3 15.2,20.3 12.6,19.7 C9.1,23.2 5.9,28 6.9,33.1 C7.8,37.5 11.4,40.8 15.9,41.3 C13.1,39.7 10.3,37.1 10.7,33.5 Z" id="Trazado_198" fill="#BF2C47"></path>
                <path d="M21.7,6.3 C14.8,10 7.7,14.7 4.5,22.2 C4.5,22.2 4.5,22.2 4.5,22.3 C3.6,24.8 3.2,27.4 3.5,30 L3.5,30 C3.6,30.9 3.7,31.7 3.9,32.6 L3.9,32.6 C4.2,33.2 4.6,33.8 5.1,34.3 L5.1,34.3 C5.2,34.5 8.6,38.1 10.7,39.1 C0.6,28.2 15.5,16.6 24.2,10.8 C27,9.1 24.6,4.6 21.7,6.3 Z" id="Trazado_199" fill="#F83F2E"></path>
                <path d="M1.1,24.6 C-1.5,12.4 15.4,-0.5 12.7,6.5 C7.7,12.4 1.9,15.9 1.1,24.6 Z" id="Trazado_193" fill="#F83F2E"></path>
                <path d="M20.8,28.9 C16,32.9 11,39.5 20.1,41.8 C15.3,42.5 9.6,38.8 10.1,33.5 C11.3,27.8 16.5,24.2 21,20.9 C23.2,19.4 25.2,20.9 25.5,23 C26,26 22.7,27.1 20.8,28.9 Z" id="Trazado_200" fill="#77BDD9"></path>
            </g>
        </g>
    </g>
</svg>