<?xml version="1.0" encoding="UTF-8"?>
<svg width="159px" height="46px" viewBox="0 0 159 46" version="1.1" xmlns="http://www.w3.org/2000/svg" xmlns:xlink="http://www.w3.org/1999/xlink">
    <!-- Generator: Sketch 55.2 (78181) - https://sketchapp.com -->
    <title>Recurso 7</title>
    <desc>Created with Sketch.</desc>
    <g id="Page-1" stroke="none" stroke-width="1" fill="none" fill-rule="evenodd">
        <g id="Artboard" transform="translate(-420.000000, -170.000000)" fill="#FFFFFF" fill-rule="nonzero">
            <g id="Recurso-7" transform="translate(420.000000, 170.000000)">
                <path d="M37.37,44.16 L37.37,20.44 C37.37,17.15 35.2,15.07 31.21,15.07 C27.22,15.07 25.01,17.46 25.01,20.49 L25.01,44.16 L18.81,44.16 L18.81,20.44 C18.81,17.15 16.7,15.07 12.61,15.07 C8.73,15.07 6.37,17.46 6.37,20.49 L6.37,44.16 L0.21,44.16 L0.21,10.37 L5.69,10.37 L5.93,13.51 C8.02,11.04 10.2,9.63 14.71,9.63 C18.0287384,9.61565329 21.121996,11.3076916 22.9,14.11 C24.9,11.58 28.01,9.63 33.21,9.63 C35.9785647,9.52618502 38.6661253,10.5756022 40.6317951,12.5280033 C42.597465,14.4804045 43.665061,17.1607956 43.58,19.93 L43.58,44.16 L37.37,44.16 Z" id="Fill-11"></path>
                <path d="M117.86,15.34 C112.98,15.34 107.56,18.63 107.56,26.96 L107.56,44.2 L101.36,44.2 L101.36,10.41 L107.22,10.41 L107.44,15.49 C109,11.62 112.93,10 117.52,10 L118.52,10 L118.52,15.36 L117.86,15.34 Z" id="Fill-17"></path>
                <path d="M134.85,9.83 C130.207161,9.86107177 125.770717,11.752787 122.534034,15.0815707 C119.297351,18.4103544 117.530825,22.8981165 117.63,27.54 C117.479329,33.7928455 120.729044,39.636286 126.12045,42.8070141 C131.511856,45.9777423 138.198144,45.9777423 143.58955,42.8070141 C148.980956,39.636286 152.230671,33.7928455 152.08,27.54 C152.17646,22.8971779 150.407676,18.4094654 147.169413,15.0809894 C143.931149,11.7525134 139.49372,9.86111674 134.85,9.83 Z M132.85,12.71 C133.101105,12.6400915 133.35953,12.5998174 133.62,12.59 L133.62,19.14 C132.302029,18.9633971 131.003181,18.6654655 129.74,18.25 C130.566274,16.2928637 131.609462,14.4345805 132.85,12.71 L132.85,12.71 Z M133.62,21.58 L133.62,26.35 L127.62,26.35 C127.794174,24.3006458 128.238005,22.2832336 128.94,20.35 C130.437835,20.9494694 132.007937,21.3495594 133.61,21.54 L133.62,21.58 Z M129.55,13.58 C128.798934,14.7871129 128.150011,16.0548537 127.61,17.37 C126.824878,16.997157 126.06344,16.5763621 125.33,16.11 C126.57884,15.0173824 128.015397,14.1601917 129.57,13.58 L129.55,13.58 Z M123.7,17.81 C124.707593,18.4636588 125.760228,19.0451142 126.85,19.55 C126.042084,21.7437376 125.521101,24.0326996 125.3,26.36 L120.3,26.36 C120.479332,23.2174054 121.672255,20.2175531 123.7,17.81 L123.7,17.81 Z M120.33,28.76 L125.33,28.76 C125.518813,31.0956141 126.040766,33.3922089 126.88,35.58 C125.786805,36.0882585 124.730847,36.6730449 123.72,37.33 C121.70592,34.8991415 120.530922,31.882728 120.37,28.73 L120.33,28.76 Z M125.33,39.01 C126.071737,38.5197306 126.850794,38.0884073 127.66,37.72 C128.170853,39.0683682 128.810477,40.3643601 129.57,41.59 C128.019647,40.9983392 126.594756,40.1196564 125.37,39 L125.33,39.01 Z M133.64,42.53 C133.377362,42.5095883 133.116628,42.4694755 132.86,42.41 C131.626867,40.6732022 130.603113,38.7968802 129.81,36.82 C131.069659,36.4128559 132.365664,36.1282036 133.68,35.97 L133.64,42.53 Z M133.64,33.53 C132.047029,33.7113729 130.486086,34.1083368 129,34.71 C128.301372,32.7752606 127.854375,30.7587321 127.67,28.71 L133.67,28.71 L133.64,33.53 Z M149.28,26.38 L144.28,26.38 C144.061129,24.052342 143.540081,21.7630949 142.73,19.57 C143.815651,19.0633221 144.864837,18.4819259 145.87,17.83 C147.906104,20.2252164 149.115923,23.2129418 149.32,26.35 L149.28,26.38 Z M144.28,16.13 C143.550232,16.5908023 142.788266,16.9985207 142,17.35 C141.444508,16.0342449 140.775306,14.7694514 140,13.57 C141.555539,14.1390648 142.992879,14.9899429 144.24,16.08 L144.28,16.13 Z M136,12.61 C136.259631,12.6215654 136.517516,12.6584062 136.77,12.72 C138.01838,14.4378335 139.058958,16.2974468 139.87,18.26 C138.611553,18.6801806 137.315574,18.9782223 136,19.15 L136,12.61 Z M136,21.61 C137.5964,21.4125592 139.159843,21.0057277 140.65,20.4 C141.351995,22.3332336 141.795826,24.3506458 141.97,26.4 L135.97,26.4 L136,21.61 Z M136,28.77 L142,28.77 C141.820689,30.8167078 141.383907,32.8326214 140.7,34.77 C139.211362,34.1616686 137.647113,33.7579915 136.05,33.57 L136,28.77 Z M136.77,42.41 C136.515642,42.4613281 136.258555,42.4980548 136,42.52 L136,35.94 C137.301243,36.0982681 138.58397,36.3829464 139.83,36.79 C139.053147,38.7647512 138.046198,40.6410334 136.83,42.38 L136.77,42.41 Z M140.05,41.55 C140.823988,40.3192873 141.477033,39.0165462 142,37.66 C142.80299,38.0381435 143.578254,38.4725588 144.32,38.96 C143.092691,40.0739073 141.663695,40.9428453 140.11,41.52 L140.05,41.55 Z M146,37.32 C144.996029,36.6631549 143.946729,36.078354 142.86,35.57 C143.699228,33.3856684 144.221197,31.0923725 144.41,28.76 L149.41,28.76 C149.223585,31.8998151 148.027487,34.8953201 146,37.3 L146,37.32 Z" id="Shape"></path>
                <path d="M97.38,15.41 L97.38,10.41 L87.05,10.41 L87.05,0.79 L81.05,0.79 L81.05,10.41 L75.34,10.41 L75.34,15.41 L81.05,15.41 L81.05,35 C81.05,41.2 85.34,44.62 90.74,44.62 C91.5798518,44.6488795 92.4192642,44.5511166 93.23,44.33 C93.8388653,44.1677197 94.3811749,43.8178425 94.78,43.33 L94.78,38.66 L94.78,38.66 C93.7661746,39.1133972 92.6590188,39.3190609 91.55,39.26 C90.3962222,39.365676 89.2533063,38.9658877 88.4169653,38.1640745 C87.5806243,37.3622613 87.1330333,36.2372059 87.19,35.08 L87.19,15.41 L97.38,15.41 Z" id="Path-2"></path>
                <path d="M74,22.47 C73.81,16.19 69.51,9.69 61.46,9.69 C54.32,9.69 47.04,16.17 47.04,27.36 C47.04,37.87 54.11,44.96 62.59,44.96 C65.6075309,45.0850734 68.5999986,44.3646645 71.23,42.88 L71.28,42.88 C71.8246847,42.4939878 72.2729753,41.9875221 72.59,41.4 L72.59,36.22 C70.0758196,38.418849 66.8291966,39.5961958 63.49,39.52 C56.73,39.52 53.57,33.62 53.41,28.76 L73.52,28.76 C73.7940884,27.1869173 73.9545036,25.596134 74,24 L74,24 C74.08,23.44 74,22.88 74,22.47 Z M67.8,23.7 L53.75,23.7 C54.52,18.87 58.11,14.98 61.75,14.98 C65.51,14.98 67.95,18.98 67.95,22.58 C67.9485625,22.949339 67.9117274,23.31769 67.84,23.68 L67.8,23.7 Z" id="Shape-2"></path>
                <path d="M148.26,8.45 C148.181427,6.77536664 149.030105,5.19319481 150.468698,4.33236996 C151.907292,3.47154511 153.702708,3.47154511 155.141302,4.33236996 C156.579895,5.19319481 157.428573,6.77536664 157.35,8.45 C157.428573,10.1246334 156.579895,11.7068052 155.141302,12.56763 C153.702708,13.4284549 151.907292,13.4284549 150.468698,12.56763 C149.030105,11.7068052 148.181427,10.1246334 148.26,8.45 L148.26,8.45 Z M152.82,14.11 C155.933804,14.0879498 158.44278,11.5507053 158.429992,8.43684932 C158.417106,5.32299336 155.887296,2.80652161 152.773416,2.81014158 C149.659535,2.81376937 147.135589,5.33612259 147.13,8.45 C147.119137,9.95964715 147.716105,11.4101837 148.786432,12.4748678 C149.856759,13.5395518 151.310431,14.128843 152.82,14.11 L152.82,14.11 Z M151.64,8.9 L152.76,8.9 L154.47,11.72 L155.56,11.72 L153.73,8.85 C154.19261,8.84533706 154.633083,8.65123118 154.948679,8.3129577 C155.264275,7.97468422 155.427398,7.52182147 155.4,7.06 C155.4,5.77 154.64,5.21 153.12,5.21 L150.66,5.21 L150.66,11.72 L151.66,11.72 L151.64,8.9 Z M151.64,8.06 L151.64,6 L153,6 C153.68,6 154.4,6.15 154.4,7 C154.4,8 153.67,8.06 152.84,8.06 L151.64,8.06 Z" id="Shape"></path>
            </g>
        </g>
    </g>
</svg>