<?xml version="1.0" encoding="UTF-8"?>
<svg width="183px" height="25px" viewBox="0 0 183 25" version="1.1" xmlns="http://www.w3.org/2000/svg" xmlns:xlink="http://www.w3.org/1999/xlink">
    <!-- Generator: Sketch 55.2 (78181) - https://sketchapp.com -->
    <title>Artboard-Copy</title>
    <desc>Created with Sketch.</desc>
    <g id="Page-1" stroke="none" stroke-width="1" fill="none" fill-rule="evenodd">
        <g id="novamulher_with-bg" transform="translate(-18.000000, -23.000000)" fill="#FFFFFF" fill-rule="nonzero">
            <g id="Artboard-Copy" transform="translate(18.000000, 23.000000)">
                <g id="Group-2">
                    <g id="Group">
                        <path d="M59.3,2 L59.9,0.7 L60.6,2 L69.4,21.1 L68,21.1 L65.6,15.8 L54.4,15.8 L52,21.1 L50.5,21.1 L59.3,2 Z M64.9,14.5 L59.9,3.5 L54.9,14.5 L64.9,14.5 Z" id="Shape_25_"></path>
                        <polygon id="Shape_24_" points="37.2 2.1 38.8 2.1 46.3 19.6 53.8 2.1 55.3 2.1 46.9 21.3 46.3 22.6 45.6 21.3"></polygon>
                        <polygon id="Shape_23_" points="0.8 2.1 0.8 0.4 15.4 18.5 15.4 2.1 16.7 2.1 16.7 21 16.7 22.3 2.2 4.2 2.2 21 0.8 21"></polygon>
                    </g>
                    <path d="M85.2,1.9 L91,1.9 L91,20.9 L85.1,20.9 L85.1,11.7 L81.1,17.1 L77,11.6 L77,20.9 L71.1,20.9 L71.1,1.9 L77,1.9 L77,1.9 L77,1.9 L81,7.2 L85.2,1.9 L85.2,1.9 Z M103.6,1.9 L109.5,1.9 L109.5,13.5 C109.5,15.7 108.7,17.7 107.1,19.3 C105.5,20.9 103.6,21.7 101.3,21.7 C99.1,21.7 97.1,20.9 95.5,19.3 C93.9,17.7 93.1,15.8 93.1,13.5 L93.1,1.9 L99,1.9 L99,13.5 C99,14.8 100,15.7 101.2,15.7 C102.5,15.7 103.5,14.7 103.5,13.5 L103.5,1.9 L103.6,1.9 Z M124.1,20.9 L112.2,20.9 L112.2,1.9 L118.1,1.9 L118.1,15 L124.1,15 L124.1,20.9 Z M143.3,20.9 L137.4,20.9 L137.4,14.3 L132.1,14.3 L132.1,20.9 L126.2,20.9 L126.2,1.9 L132.1,1.9 L132.1,8.4 L137.4,8.4 L137.4,1.9 L143.3,1.9 L143.3,20.9 Z M159.6,7.1 L151.8,7.1 L151.8,8.9 L159.4,8.9 L159.4,13.7 L151.8,13.7 L151.8,15.6 L159.6,15.6 L159.6,21 L145.9,21 L145.9,2 L159.6,2 L159.6,7.1 Z M182.2,20.9 L177.5,24.5 L172.7,18.2 C172.3,18.2 171.9,18.3 171.5,18.3 L168,18.3 L168,21 L162.1,21 L162.1,2 L171.5,2 C173.7,2 175.7,2.7 177.3,4.3 C178.9,5.9 179.7,7.9 179.7,10.1 C179.7,12.1 179.1,13.8 177.9,15.3 L182.2,20.9 Z M168,12.2 L171.5,12.2 C172.8,12.2 173.7,11.2 173.7,9.9 C173.7,8.7 172.7,7.7 171.5,7.7 L168,7.7 L168,12.2 Z" id="MULHER"></path>
                    <path d="M145.5,22.4 L145.5,24.5 L145.3,24.5 L143.9,22.9 L143.9,24.5 L143.6,24.5 L143.6,22.4 L143.8,22.4 C143.9,22.6 144.1,22.7 144.2,22.9 C144.3,23 144.4,23.2 144.6,23.3 C144.7,23.4 144.8,23.5 144.9,23.6 C145,23.7 145.1,23.8 145.2,24 L145.2,22.4 L145.5,22.4 L145.5,22.4 Z M147.9,24 C148.1,23.8 148.1,23.7 148.1,23.4 C148.1,23.1 148,23 147.9,22.8 C147.7,22.6 147.6,22.6 147.3,22.6 C147.1,22.6 146.9,22.7 146.7,22.8 C146.5,23 146.5,23.1 146.5,23.4 C146.5,23.6 146.6,23.8 146.7,24 C146.9,24.2 147,24.2 147.3,24.2 C147.5,24.3 147.7,24.2 147.9,24 Z M148.1,22.7 C148.3,22.9 148.4,23.2 148.4,23.5 C148.4,23.8 148.3,24.1 148.1,24.3 C147.9,24.5 147.6,24.6 147.3,24.6 C147,24.6 146.7,24.5 146.5,24.3 C146.3,24.1 146.2,23.8 146.2,23.5 C146.2,23.2 146.3,22.9 146.5,22.7 C146.7,22.5 147,22.4 147.3,22.4 C147.6,22.4 147.9,22.5 148.1,22.7 Z M150.3,22.4 L150.6,22.4 L149.7,24.5 L149.6,24.5 L148.7,22.4 L149,22.4 L149.6,23.9 L150.3,22.4 Z M151.3,23.6 L151.9,23.6 L151.6,22.9 L151.3,23.6 Z M151.7,22.4 L152.7,24.5 L152.4,24.5 L152.1,23.8 L151.2,23.8 L150.9,24.5 L150.6,24.5 L151.6,22.4 L151.7,22.4 Z M155.2,22.4 L155.2,24.5 L154.9,24.5 L154.9,22.9 L154.2,23.7 L153.5,22.9 L153.5,24.5 L153.2,24.5 L153.2,22.4 L153.5,22.4 L154.2,23.3 L154.9,22.4 L155.2,22.4 Z M157.7,22.4 L157.7,23.6 C157.7,23.7 157.7,23.9 157.6,24 C157.5,24.1 157.5,24.2 157.4,24.3 C157.2,24.5 157,24.6 156.8,24.6 C156.5,24.6 156.3,24.5 156.2,24.3 C156,24.1 156,23.9 156,23.6 L156,22.4 L156.3,22.4 L156.3,23.6 C156.3,23.7 156.3,23.8 156.3,23.9 C156.3,24 156.4,24 156.4,24.1 C156.5,24.2 156.7,24.3 156.8,24.3 C157,24.3 157.1,24.2 157.2,24.1 C157.3,24 157.3,24 157.3,23.9 C157.3,23.8 157.3,23.7 157.3,23.6 L157.3,22.4 L157.7,22.4 L157.7,22.4 Z M159.7,24.3 L159.7,24.6 L158.4,24.6 L158.4,22.5 L158.7,22.5 L158.7,24.3 L159.7,24.3 L159.7,24.3 Z M162.1,22.4 L162.1,24.5 L161.8,24.5 L161.8,23.6 L160.6,23.6 L160.6,24.5 L160.3,24.5 L160.3,22.4 L160.6,22.4 L160.6,23.3 L161.8,23.3 L161.8,22.4 L162.1,22.4 Z M163.9,24.3 L163.9,24.6 L162.7,24.6 L162.7,22.5 L163.9,22.5 L163.9,22.8 L163,22.8 L163,23.4 L163.9,23.4 L163.9,23.7 L163,23.7 L163,24.3 L163.9,24.3 L163.9,24.3 Z M165.4,23.2 C165.5,23.2 165.5,23.2 165.4,23.2 C165.5,23.1 165.5,23 165.5,23 C165.5,22.9 165.5,22.8 165.4,22.8 C165.3,22.7 165.2,22.7 165.1,22.7 L164.8,22.7 L164.8,23.3 L165.1,23.3 C165.2,23.3 165.2,23.3 165.3,23.3 C165.3,23.3 165.4,23.3 165.4,23.2 Z M165.8,23.9 L166.2,24.6 L165.9,24.6 L165.5,24 C165.5,23.9 165.4,23.9 165.4,23.8 C165.4,23.8 165.3,23.7 165.3,23.7 C165.2,23.6 165.2,23.6 165.1,23.6 L164.9,23.6 L164.9,24.5 L164.6,24.5 L164.6,22.4 L165.2,22.4 C165.3,22.4 165.4,22.4 165.5,22.4 C165.6,22.4 165.7,22.5 165.7,22.5 C165.8,22.6 165.8,22.6 165.8,22.7 C165.8,22.8 165.8,22.9 165.8,22.9 C165.8,23 165.8,23.2 165.7,23.3 C165.6,23.4 165.6,23.4 165.5,23.4 C165.5,23.4 165.5,23.4 165.5,23.4 C165.5,23.4 165.5,23.4 165.5,23.5 C165.5,23.5 165.6,23.6 165.6,23.6 C165.7,23.8 165.8,23.8 165.8,23.9 Z M167,24.1 L167,24.5 L166.7,24.5 L166.7,24.1 L167,24.1 Z M169.5,24 L169.5,24.3 C169.4,24.3 169.4,24.4 169.3,24.4 C169.2,24.4 169.2,24.4 169.1,24.5 C169,24.5 169,24.5 168.9,24.5 C168.8,24.5 168.8,24.5 168.7,24.5 C168.4,24.5 168.1,24.4 167.9,24.2 C167.7,24 167.6,23.7 167.6,23.4 C167.6,23.1 167.7,22.8 167.9,22.6 C168,22.5 168.1,22.4 168.3,22.4 C168.4,22.3 168.6,22.3 168.7,22.3 C168.8,22.3 168.9,22.3 169,22.3 C169.1,22.3 169.1,22.3 169.2,22.4 C169.3,22.4 169.3,22.5 169.4,22.5 L169.4,22.8 C169.3,22.7 169.2,22.7 169.2,22.7 C169.1,22.7 169.1,22.7 169,22.6 C168.9,22.6 168.8,22.5 168.7,22.5 C168.5,22.5 168.3,22.6 168.1,22.7 C167.9,22.8 167.9,23 167.9,23.3 C167.9,23.5 168,23.7 168.1,23.9 C168.3,24 168.4,24.1 168.7,24.1 C168.8,24.1 169,24.1 169.1,24 C169.1,24 169.2,24 169.2,24 C169.2,24 169.3,24 169.3,24 C169.3,24 169.4,24 169.4,23.9 C169.4,24.1 169.5,24 169.5,24 Z M171.6,24 C171.8,23.8 171.8,23.7 171.8,23.4 C171.8,23.1 171.7,23 171.6,22.8 C171.4,22.6 171.3,22.6 171,22.6 C170.8,22.6 170.6,22.7 170.4,22.8 C170.2,23 170.2,23.1 170.2,23.4 C170.2,23.6 170.3,23.8 170.4,24 C170.6,24.2 170.7,24.2 171,24.2 C171.2,24.3 171.4,24.2 171.6,24 Z M171.8,22.7 C172,22.9 172.1,23.2 172.1,23.5 C172.1,23.8 172,24.1 171.8,24.3 C171.6,24.5 171.3,24.6 171,24.6 C170.7,24.6 170.4,24.5 170.2,24.3 C170,24.1 169.9,23.8 169.9,23.5 C169.9,23.2 170,22.9 170.2,22.7 C170.4,22.5 170.7,22.4 171,22.4 C171.3,22.4 171.6,22.5 171.8,22.7 Z M174.8,22.4 L174.8,24.5 L174.5,24.5 L174.5,22.9 L173.8,23.7 L173.1,22.9 L173.1,24.5 L172.8,24.5 L172.8,22.4 L173.1,22.4 L173.8,23.3 L174.5,22.4 L174.8,22.4 Z" id="NOVAMULHER"></path>
                </g>
                <path d="M37.9,11.5 C37.9,14.1 37,16.4 35.1,18.2 C33.2,20 30.9,20.9 28.2,20.9 C25.4,20.9 23.1,20 21.3,18.2 C19.4,16.4 18.5,14.2 18.5,11.5 C18.5,8.8 19.4,6.6 21.3,4.8 C23.2,3 25.5,2.1 28.3,2.1 C31,2.1 33.3,3 35.2,4.8 C37,6.6 37.9,8.8 37.9,11.5 Z M36.5,11.5 C36.5,9.3 35.7,7.4 34.1,5.9 C32.5,4.3 30.6,3.6 28.3,3.6 C26,3.6 24.1,4.4 22.5,5.9 C20.9,7.5 20.1,9.3 20.1,11.5 C20.1,13.7 20.9,15.6 22.5,17.1 C24.1,18.7 26,19.4 28.3,19.4 C30.6,19.4 32.5,18.6 34.1,17.1 C35.7,15.6 36.5,13.7 36.5,11.5 Z" id="nn"></path>
            </g>
        </g>
    </g>
</svg>