<?xml version="1.0" encoding="UTF-8"?>
<svg width="181px" height="27px" viewBox="0 0 181 27" version="1.1" xmlns="http://www.w3.org/2000/svg" xmlns:xlink="http://www.w3.org/1999/xlink">
    <!-- Generator: Sketch 55.2 (78181) - https://sketchapp.com -->
    <title>Page-1</title>
    <desc>Created with Sketch.</desc>
    <g id="Page-1" stroke="none" stroke-width="1" fill="none" fill-rule="evenodd">
        <g id="nuevamujer_dark-bg" transform="translate(-19.000000, -22.000000)" fill="#FFFFFF" fill-rule="nonzero">
            <g id="Page-1" transform="translate(19.000000, 22.000000)">
                <g id="logo_nuevamujer">
                    <polygon id="Shape" points="109.6 2.2 109.6 22.1 103.4 22.1 103.4 12.5 99.2 18.1 94.9 12.4 94.9 22.1 88.7 22.1 88.7 2.2 94.9 2.2 94.9 2.2 94.9 2.2 99.1 7.8 103.4 2.3 103.4 2.2"></polygon>
                    <path d="M128.6,2.2 L128.6,14.3 C128.6,16.6 127.8,18.7 126.1,20.4 C124.4,22.1 122.4,22.9 120,22.9 C117.7,22.9 115.6,22 113.9,20.4 C112.2,18.8 111.4,16.7 111.4,14.3 L111.4,2.2 L117.6,2.2 L117.6,14.3 C117.6,15.6 118.7,16.6 119.9,16.6 C121.2,16.6 122.3,15.6 122.3,14.3 L122.3,2.2 L128.6,2.2 Z" id="Shape_1_"></path>
                    <path d="M140.6,13.6 C140.6,16.4 139.6,18.9 137.6,20.9 C135.6,22.9 133.2,23.9 130.3,23.9 L130.3,17.7 C131.4,17.7 132.4,17.3 133.2,16.5 C134,15.7 134.4,14.7 134.4,13.6 L134.4,2.2 L140.6,2.2 L140.6,13.6 L140.6,13.6 Z" id="Shape_2_"></path>
                    <path d="M76.3,2.5 L77,1.1 L77.7,2.5 L86.8,22.2 L85.2,22.2 L82.7,16.7 L71.2,16.7 L68.7,22.2 L67.2,22.2 L76.3,2.5 Z M82.1,15.4 L77,4.1 L71.8,15.4 L82.1,15.4 L82.1,15.4 Z" id="Shape_3_"></path>
                    <polygon id="Shape_4_" points="53.5 2.6 55.2 2.6 62.8 20.6 70.5 2.6 72 2.6 63.4 22.3 62.8 23.6 62.1 22.3"></polygon>
                    <polygon id="Shape_5_" points="38.7 2.6 52.6 2.6 52.6 4 40.2 4 40.2 11.6 51.4 11.6 51.4 13 40.2 13 40.2 20.8 52.8 20.8 52.8 22.1 38.7 22.1"></polygon>
                    <polygon id="Shape_6_" points="0.5 2.6 0.5 0.9 15.4 19.6 15.4 2.6 16.8 2.6 16.8 22.1 16.8 23.5 1.9 4.8 1.9 22.1 0.5 22.1"></polygon>
                    <path d="M20,14 L20,2.6 L21.5,2.6 L21.5,13.9 C21.5,18.5 24,21.2 28.1,21.2 C32.1,21.2 34.6,18.8 34.6,14.1 L34.6,2.6 L36,2.6 L36,13.8 C36,19.4 32.7,22.4 28,22.4 C23.3,22.5 20,19.5 20,14" id="Shape_7_"></path>
                    <polygon id="Shape_8_" points="149 7.7 149 9.5 157 9.5 157 14.5 149 14.5 149 16.5 157.2 16.5 157.2 22.1 142.8 22.1 142.8 2.2 157.2 2.2 157.2 7.7"></polygon>
                    <path d="M175.5,25.9 L170.5,19.3 C170.1,19.3 169.7,19.4 169.2,19.4 L165.5,19.4 L165.5,22.2 L159.3,22.2 L159.3,2.2 L169.2,2.2 C171.5,2.2 173.6,2.9 175.3,4.6 C177,6.3 177.8,8.3 177.8,10.7 C177.8,12.8 177.1,14.6 175.9,16.1 L180.4,22.1 L175.5,25.9 Z M169.3,13.1 C170.6,13.1 171.6,12 171.6,10.7 C171.6,9.4 170.6,8.4 169.3,8.4 L165.6,8.4 L165.6,13.1 L169.3,13.1 L169.3,13.1 Z" id="Shape_9_"></path>
                    <polygon id="Shape_10_" points="142.8 23.9 143.2 23.9 144.4 25.4 144.4 23.9 144.7 23.9 144.7 26.1 144.4 26.1 143.2 24.5 143.2 26.1 142.8 26.1"></polygon>
                    <path d="M145.2,25.1 L145.2,23.8 L145.6,23.8 L145.6,25.1 C145.6,25.5 145.8,25.7 146.2,25.7 C146.6,25.7 146.8,25.5 146.8,25.1 L146.8,23.8 L147.2,23.8 L147.2,25.1 C147.2,25.8 146.8,26.1 146.2,26.1 C145.6,26.1 145.2,25.8 145.2,25.1" id="Shape_11_"></path>
                    <polygon id="Shape_12_" points="147.6 23.9 149.2 23.9 149.2 24.2 148 24.2 148 24.8 149.1 24.8 149.1 25.1 148 25.1 148 25.7 149.2 25.7 149.2 26.1 147.6 26.1"></polygon>
                    <polygon id="Shape_13_" points="149.5 23.9 149.9 23.9 150.6 25.6 151.2 23.9 151.6 23.9 150.7 26.1 150.4 26.1"></polygon>
                    <path d="M152.4,23.8 L152.8,23.8 L153.8,26 L153.4,26 L153.2,25.5 L152.2,25.5 L152,26 L151.6,26 L152.4,23.8 Z M153,25.2 L152.6,24.3 L152.2,25.2 L153,25.2 Z" id="Shape_14_"></path>
                    <polygon id="Shape_15_" points="154.1 23.9 154.5 23.9 155.2 24.9 155.9 23.9 156.3 23.9 156.3 26.1 155.9 26.1 155.9 24.5 155.2 25.5 155.2 25.5 154.5 24.5 154.5 26.1 154.1 26.1"></polygon>
                    <path d="M156.7,25.1 L156.7,23.8 L157.1,23.8 L157.1,25.1 C157.1,25.5 157.3,25.7 157.7,25.7 C158.1,25.7 158.3,25.5 158.3,25.1 L158.3,23.8 L158.7,23.8 L158.7,25.1 C158.7,25.8 158.3,26.1 157.7,26.1 C157.1,26.1 156.7,25.8 156.7,25.1" id="Shape_16_"></path>
                    <path d="M158.8,25.8 L159.1,25.5 C159.2,25.7 159.4,25.8 159.5,25.8 C159.7,25.8 159.9,25.7 159.9,25.4 L159.9,23.9 L160.3,23.9 L160.3,25.4 C160.3,25.7 160.2,25.9 160.1,26 C160,26.1 159.8,26.2 159.6,26.2 C159.2,26.1 159,26 158.8,25.8" id="Shape_17_"></path>
                    <polygon id="Shape_18_" points="160.8 23.9 162.4 23.9 162.4 24.2 161.2 24.2 161.2 24.8 162.3 24.8 162.3 25.1 161.2 25.1 161.2 25.7 162.4 25.7 162.4 26.1 160.8 26.1"></polygon>
                    <path d="M162.8,23.9 L163.8,23.9 C164.1,23.9 164.3,24 164.4,24.1 C164.5,24.2 164.6,24.4 164.6,24.6 L164.6,24.6 C164.6,25 164.4,25.2 164.1,25.3 L164.7,26.1 L164.2,26.1 L163.7,25.3 L163.2,25.3 L163.2,26.1 L162.8,26.1 L162.8,23.9 L162.8,23.9 Z M163.8,25 C164.1,25 164.3,24.9 164.3,24.6 L164.3,24.6 C164.3,24.4 164.1,24.2 163.8,24.2 L163.2,24.2 L163.2,25 L163.8,25 L163.8,25 Z" id="Shape_19_"></path>
                    <rect id="Rectangle-path" x="165" y="25.6" width="1" height="1"></rect>
                    <path d="M165.6,25 L165.6,25 C165.6,24.4 166.1,23.8 166.7,23.8 C167.1,23.8 167.4,23.9 167.6,24.1 L167.4,24.4 C167.2,24.2 167,24.1 166.8,24.1 C166.4,24.1 166.1,24.4 166.1,24.9 L166.1,24.9 C166.1,25.3 166.4,25.7 166.8,25.7 C167.1,25.7 167.2,25.6 167.4,25.4 L167.6,25.7 C167.4,25.9 167.1,26.1 166.7,26.1 C166.1,26.1 165.6,25.6 165.6,25" id="Shape_20_"></path>
                    <path d="M167.8,25 L167.8,25 C167.8,24.4 168.3,23.8 169,23.8 C169.7,23.8 170.2,24.3 170.2,24.9 L170.2,24.9 C170.2,25.5 169.7,26 169,26 C168.3,26.1 167.8,25.6 167.8,25 M169.7,25 L169.7,25 C169.7,24.6 169.4,24.2 168.9,24.2 C168.4,24.2 168.1,24.6 168.1,25 L168.1,25 C168.1,25.4 168.4,25.8 168.9,25.8 C169.4,25.8 169.7,25.4 169.7,25" id="Shape_21_"></path>
                    <polygon id="Shape_22_" points="170.6 23.9 171 23.9 171.7 24.9 172.3 23.9 172.7 23.9 172.7 26.1 172.4 26.1 172.4 24.5 171.7 25.5 171.6 25.5 170.9 24.5 170.9 26.1 170.6 26.1"></polygon>
                </g>
            </g>
        </g>
    </g>
</svg>