<?xml version="1.0" encoding="UTF-8"?>
<svg width="312px" height="93px" viewBox="0 0 312 93" version="1.1" xmlns="http://www.w3.org/2000/svg" xmlns:xlink="http://www.w3.org/1999/xlink">
    <!-- Generator: Sketch 55.2 (78181) - https://sketchapp.com -->
    <title>publimetro_green-bg</title>
    <desc>Created with Sketch.</desc>
    <g id="Page-1" stroke="none" stroke-width="1" fill="none" fill-rule="evenodd">
        <g id="publimetro_green-bg" fill-rule="nonzero">
            <rect id="Rectangle" fill="#279655" x="0" y="0" width="311.72" height="92.15"></rect>
            <path d="M44.33,48.41 C44.33,55.23 40.42,60 35.5,60 C32.9713632,60.0655861 30.5158439,59.147903 28.65,57.44 L28.65,39.44 C30.5239298,37.7372865 32.9680595,36.7988835 35.5,36.81 C40.42,36.76 44.33,41.59 44.33,48.41 Z M50.51,48.41 C50.51,37.55 42.93,31.58 36.51,31.58 C32.68,31.58 29.66,32.71 27.97,34.63 L27.75,32.29 L22.62,32.29 L22.62,80.09 L28.62,80.09 L28.62,63.47 C30.6964367,64.6735145 33.0717957,65.2630196 35.47,65.17 C44.19,65.17 50.51,58.2 50.51,48.41 Z" id="Shape" fill="#FFFFFF"></path>
            <path d="M73,64.46 L72.78,61.46 C70.72,63.87 68.51,65.15 64.09,65.15 C57.77,65.15 53.28,60.96 53.28,54.43 L53.28,32.29 L59.28,32.29 L59.28,53.81 C59.28,57.07 61.12,60.06 65.61,60.06 C69.95,60.06 72.3,57.06 72.3,53.81 L72.3,32.29 L78.3,32.29 L78.3,64.46 L73,64.46 Z" id="Path" fill="#FFFFFF"></path>
            <path d="M102.9,48.2 C102.9,55.15 98.9,59.99 92.74,59.99 C91.3585236,60.0235676 89.9884525,59.7324275 88.74,59.14 L88.74,38.14 C90.132988,37.090555 91.8611227,36.5856267 93.6,36.72 C98.26,36.76 102.9,41.3 102.9,48.2 Z M109,48.2 C109,38.2 101.79,31.58 93.62,31.58 C90.98,31.58 89.79,31.93 88.69,32.58 L88.69,14.82 L82.69,14.82 L82.69,62 C85.6258554,64.1004179 89.160794,65.1980724 92.77,65.13 C102.23,65.17 109,58.42 109,48.2 Z" id="Shape" fill="#FFFFFF"></path>
            <path d="M118.86,65.6 C116.65,64.89 113.04,62.6 113.04,57.07 L113.04,14.82 L119.16,14.82 L119.16,56.44 C119.070757,58.8523217 120.665915,61.0041225 123,61.62 L118.86,65.6 Z" id="Path" fill="#FFFFFF"></path>
            <path d="M129.82,26.18 C128.64,26.18 126.21,23.62 126.21,22.35 C126.21,21.08 128.64,18.44 129.82,18.44 C131,18.44 133.5,21 133.5,22.35 C133.5,23.7 131.07,26.18 129.82,26.18 Z M126.74,64.46 L126.74,32.29 L132.91,32.29 L132.91,64.46 L126.74,64.46 Z" id="Shape" fill="#FFFFFF"></path>
            <path d="M176.39,64.46 L176.39,41.87 C176.39,38.75 174.26,36.76 170.39,36.76 C166.52,36.76 164.25,39 164.25,42 L164.25,64.46 L158.15,64.46 L158.15,41.87 C158.15,38.75 156.09,36.76 152.15,36.76 C148.21,36.76 146,39 146,42 L146,64.46 L140,64.46 L140,32.29 L145.38,32.29 L145.6,35.29 C147.65,32.94 149.79,31.59 154.2,31.59 C157.41627,31.5625526 160.427545,33.1660564 162.2,35.85 C164.12,33.44 167.2,31.59 172.28,31.59 C178.28,31.59 182.44,35.71 182.44,41.39 L182.44,64.46 L176.39,64.46 Z" id="Path" fill="#FFFFFF"></path>
            <path d="M205.6,43.86 C205.613941,44.2152297 205.587099,44.5708864 205.52,44.92 L191.77,44.92 C192.5,40.32 196.03,36.62 199.56,36.62 C203.25,36.62 205.6,40.46 205.6,43.86 Z M211.71,43.73 C211.752383,40.4580911 210.4568,37.3107745 208.123278,35.0168999 C205.789756,32.7230254 202.620702,31.48156 199.35,31.58 C192.35,31.58 185.22,37.76 185.22,48.41 C185.22,58.41 192.14,65.17 200.45,65.17 C203.40014,65.2927116 206.32711,64.6007563 208.91,63.17 L210.24,56.85 C207.756715,58.9569975 204.585773,60.0780376 201.33,60 C194.71,60 191.63,54.39 191.48,49.76 L207.14,49.76 L211.63,45.29 C211.697018,44.7728557 211.723765,44.251287 211.71,43.73 Z" id="Shape" fill="#FFFFFF"></path>
            <path d="M232.31,37 L223.19,37 L223.19,55.8 C223.19,58.28 225.03,59.8 227.45,59.8 C228.537155,59.8521977 229.621757,59.6537532 230.62,59.22 L229.62,64.48 C228.702927,64.8185664 227.726029,64.9649309 226.75,64.91 C221.46,64.91 217.27,61.64 217.27,55.74 L217.27,37 L211.67,37 L211.67,32.29 L217.27,32.29 L217.27,26.18 L223.27,23.13 L223.27,32.29 L233.27,32.29 L232.31,37 Z" id="Path" fill="#FFFFFF"></path>
            <path d="M253.2,37 C248.42,37 243.12,40.13 243.12,48.08 L243.12,64.48 L237,64.48 L237,32.29 L242.74,32.29 L242.96,37.12 C244.51,33.43 248.33,31.86 252.82,31.86 L253.77,36.98 L253.2,37 Z" id="Path" fill="#FFFFFF"></path>
            <path d="M272,67.3701354 C264.533155,67.3902354 257.790285,62.9078897 254.918815,56.0152236 C252.047345,49.1225576 253.613483,41.1786967 258.88619,35.8916613 C264.158898,30.6046259 272.098479,29.0169363 278.998912,31.8696913 C285.899345,34.7224463 290.399973,41.4531274 290.4,48.92 C290.432078,53.8143331 288.505427,58.5182209 285.049236,61.983804 C281.593044,65.4493872 276.894402,67.3887964 272,67.3701354 Z M277.1,33.94 C278.085662,35.3944166 278.920002,36.9458204 279.59,38.57 C280.581487,38.1129991 281.540411,37.588431 282.46,37 C280.892705,35.6098033 279.048994,34.5669647 277.05,33.94 L277.1,33.94 Z M283.95,38.47 C282.77453,39.2268384 281.544481,39.8953432 280.27,40.47 C281.184964,42.8509586 281.760599,45.3487432 281.98,47.89 L287.74,47.89 C287.571875,44.4039314 286.216944,41.0801168 283.9,38.47 L283.95,38.47 Z M274.24,33.27 C273.846893,33.1751428 273.44436,33.1248262 273.04,33.12 L273.04,40.4 C274.627855,40.2340404 276.193418,39.8988022 277.71,39.4 C276.792193,37.2201944 275.610001,35.1614329 274.19,33.27 L274.24,33.27 Z M278.39,41.17 C276.666773,41.8743309 274.851778,42.3289213 273,42.52 L273,47.87 L279.85,47.87 C279.672135,45.5755745 279.163543,43.3189072 278.34,41.17 L278.39,41.17 Z M270.95,33.12 C270.5489,33.1242878 270.149618,33.1746174 269.76,33.27 C268.357483,35.1532418 267.18579,37.1978294 266.27,39.36 C267.790543,39.8567982 269.359205,40.1919823 270.95,40.36 L270.95,33.12 Z M281.95,49.96 C281.766383,52.5100025 281.189568,55.0162795 280.24,57.39 C281.518455,57.9566187 282.749114,58.6254549 283.92,59.39 C286.206629,56.7790002 287.536237,53.4673262 287.69,50 L281.95,49.96 Z M261.45,37 C262.3801,37.5912258 263.352768,38.1126559 264.36,38.56 C265.017956,36.9301447 265.852964,35.3774991 266.85,33.93 C264.85025,34.5532758 263.008397,35.600403 261.45,37 L261.45,37 Z M273,50 L273,55.36 C274.836931,55.5559226 276.637588,56.0069284 278.35,56.7 C279.157728,54.5468677 279.662549,52.2920002 279.85,50 L273,50 Z M270.91,42.56 C269.074853,42.3662631 267.276734,41.9116825 265.57,41.21 C264.743575,43.3585573 264.231629,45.6151608 264.05,47.91 L270.91,47.91 L270.91,42.56 Z M279.5,59.25 C278.870002,60.8989364 278.051217,62.4693915 277.06,63.93 C279.065077,63.3121414 280.9113,62.2644695 282.47,60.86 C281.531058,60.2170365 280.533258,59.6645634 279.49,59.21 L279.5,59.25 Z M260,38.47 C257.699522,41.079838 256.355842,44.3949533 256.19,47.87 L262,47.87 C262.219401,45.3287432 262.795036,42.8309586 263.71,40.45 C262.424779,39.8853103 261.184513,39.2233895 260,38.47 L260,38.47 Z M273,57.47 L273,64.76 C273.404707,64.7514795 273.807199,64.6978139 274.2,64.6 C275.587754,62.701503 276.736401,60.6393128 277.62,58.46 C276.12148,57.9537038 274.572393,57.6116975 273,57.44 L273,57.47 Z M270.9,50 L264,50 C264.194649,52.2928387 264.706183,54.5476292 265.52,56.7 C267.228626,56.0059578 269.026122,55.5549008 270.86,55.36 L270.9,50 Z M270.9,57.48 C269.328555,57.6464413 267.779616,57.9817094 266.28,58.48 C267.167013,60.6596787 268.319012,62.7218578 269.71,64.62 C270.099292,64.7184089 270.49854,64.7720893 270.9,64.78 L270.9,57.48 Z M262,50 L256.22,50 C256.383393,53.4610885 257.715998,56.7643971 260,59.37 C261.169702,58.6034733 262.400526,57.9345473 263.68,57.37 C262.742109,55.0150353 262.175365,52.5287835 262,50 L262,50 Z M264.43,59.25 C263.395903,59.6879128 262.407742,60.2272141 261.48,60.86 C263.030787,62.2701253 264.875095,63.3186488 266.88,63.93 C265.868527,62.4609156 265.035975,60.87638 264.4,59.21 L264.43,59.25 Z" id="Shape" fill="#FFFFFF"></path>
            <path d="M287.1,27.24 C287.021427,25.5653666 287.870105,23.9831948 289.308698,23.12237 C290.747292,22.2615451 292.542708,22.2615451 293.981302,23.12237 C295.419895,23.9831948 296.268573,25.5653666 296.19,27.24 C296.268573,28.9146334 295.419895,30.4968052 293.981302,31.35763 C292.542708,32.2184549 290.747292,32.2184549 289.308698,31.35763 C287.870105,30.4968052 287.021427,28.9146334 287.1,27.24 L287.1,27.24 Z M291.66,32.91 C294.776494,32.9044645 297.299965,30.3764868 297.299965,27.2599883 C297.299965,24.1434897 294.776452,21.6155305 291.659959,21.6100087 C288.543465,21.6045051 286.011037,24.123521 286,27.24 C285.986561,28.7461204 286.57824,30.1946051 287.64233,31.2605751 C288.70642,32.326545 290.153858,32.9207801 291.66,32.91 L291.66,32.91 Z M290.48,27.69 L291.6,27.69 L293.31,30.51 L294.4,30.51 L292.56,27.65 C293.025259,27.6453332 293.468272,27.4501736 293.785743,27.1100265 C294.103213,26.7698795 294.267393,26.3144753 294.24,25.85 C294.24,24.57 293.48,24 291.96,24 L289.5,24 L289.5,30.51 L290.5,30.51 L290.48,27.69 Z M290.48,26.86 L290.48,24.86 L291.81,24.86 C292.49,24.86 293.21,25.01 293.21,25.86 C293.21,26.86 292.48,26.92 291.64,26.92 L290.48,26.86 Z" id="Shape" fill="#FFFFFF"></path>
        </g>
    </g>
</svg>