<?xml version="1.0" encoding="UTF-8" standalone="no"?>
<svg width="783px" height="126px" viewBox="0 0 783 126" version="1.1" xmlns="http://www.w3.org/2000/svg" xmlns:xlink="http://www.w3.org/1999/xlink">
    <!-- Generator: Sketch 43.1 (39012) - http://www.bohemiancoding.com/sketch -->
    <title>sabrosia_logo</title>
    <desc>Created with Sketch.</desc>
    <style>
    path {
      fill: #3A2F25;
    }
    @media (min-width: 130px) {
      path {
        fill: white;
      }
    }
  </style>
    <defs></defs>
    <g id="Page-1" stroke="none" stroke-width="1" fill="none" fill-rule="evenodd">
        <g id="sabrosia_logo" fill-rule="nonzero" fill="#3A2F25">
            <path d="M24.3891026,100.422081 C24.3651183,99.9714944 24.3651183,99.5199508 24.3891026,99.0693639 C25.3630591,89.979103 23.4422004,83.4499871 15.1365157,76.8938168 C0.56324034,65.3867009 -3.23338646,48.6851502 2.65544323,30.9014256 C8.42703742,13.4513713 21.1335628,3.72082426 39.3321207,1.22280615 C45.3832765,0.393139482 51.0015627,1.9352373 56.1779612,4.93826991 C58.5136533,6.29098729 60.3443308,6.48938584 62.7341315,5.0464873 C71.4997402,-0.247146749 80.3194576,-0.0307119666 89.2023017,5.0464873 C90.5189467,5.79499092 92.9718742,6.25491483 93.9999394,5.54248367 C108.555179,-4.467625 130.388037,3.92824092 140.686726,15.8501902 C159.408334,37.4936684 152.734928,71.4198205 126.952135,83.9008929 C123.940084,85.3528096 122.749693,86.8949074 122.884965,90.2676828 C123.173544,97.0132335 123.0022,103.794857 122.966128,110.549425 C122.903001,121.127675 115.751635,127.296067 105.290621,125.483425 C85.5770191,122.056541 65.8363634,122.146723 46.050617,124.581614 C43.6698344,124.870194 41.3251243,125.411281 38.9533598,125.781023 C30.6657113,127.097668 24.7768816,122.390212 24.4341932,113.994346 C24.2448128,109.485288 24.4341932,104.97623 24.4341932,100.467172 L24.4341932,100.467172 L24.3891026,100.422081 Z M36.7619577,113.408168 C60.668983,109.800922 83.9808126,109.241799 107.283624,113.299951 C110.972034,113.940237 110.827744,111.586509 110.836762,109.259835 C110.836762,100.395027 110.926943,91.530219 110.836762,82.6744292 C110.782653,78.4900234 112.396896,76.0821864 116.545229,74.7655415 C131.443157,70.0490669 139.839023,57.7934473 139.018374,42.3003242 C137.855037,20.2149583 111.828755,5.32604889 97.1923524,17.8792663 C93.9187764,20.6839003 90.1942945,20.1879039 86.812501,17.7349764 C79.5980083,12.5225054 72.4646786,12.3241068 65.2411677,17.5816684 C61.3182873,20.4584474 57.7200591,19.7640525 53.5717257,17.5816684 C49.8652801,15.5976829 45.5095301,13.7309329 41.4423598,13.7309329 C27.8250048,13.7309329 16.2998526,24.2550742 13.2697657,38.4495887 C10.3208418,52.2292698 17.3639903,66.9919256 30.4041859,72.862719 C35.3370953,75.0901937 37.0325011,78.147335 36.9062475,83.2786429 C36.5906134,93.1174074 36.7619577,103.037335 36.7619577,113.408168 Z" id="Shape"></path>
            <path d="M247.04,7.82 C247.65,6.46 247.9,4.59 248.92,3.92 C250.83,2.67 253.35,1.19 255.31,1.54 C256.89,1.82 259.05,4.54 259.16,6.37 C259.72,15.17 259.72,24.01 259.85,32.84 C259.91,36.84 257.47,38.48 253.85,38.56 C250.23,38.64 247.75,37.18 247.85,33.03 C247.85,31.2 247.73,29.37 247.62,27.54 C247.22,20.8 243.68,16.27 237.44,14.11 C228.267908,10.8368075 218.300338,10.5220422 208.94,13.21 C200.35,15.67 195.38,22.35 195.17,30.77 C194.95,39.37 198.88,45.09 208.17,48.07 C216.55,50.77 225.17,52.66 233.68,54.99 C236.571883,55.7565352 239.419501,56.68126 242.21,57.76 C258.21,64.11 264.76,74.66 264.1,92.96 C263.61,106.67 254.83,117.24 239.97,121.96 C223.08,127.37 207.4,125.96 188.97,117.29 C188.34,118.97 188.09,120.97 186.97,122.2 C185.85,123.43 183.71,124.92 182.21,124.74 C180.71,124.56 178.44,122.6 178.21,121.18 C176.58,109.31 175.21,97.4 174.08,85.47 C173.844759,84.0290253 174.324853,82.5636489 175.367162,81.5412311 C176.409471,80.5188134 177.883825,80.0670409 179.32,80.33 C181.65,80.67 183.82,82.73 185.84,84.33 C186.4,84.77 186.16,86.23 186.31,87.22 C188.54,101.88 193.98,108.22 208.43,111.42 C218.761739,113.801319 229.595779,112.606154 239.16,108.03 C247.36,104.11 250.78,97.47 249.86,88.49 C249.12,81.19 245,76.49 238.29,74.28 C228.18,70.97 217.94,68.09 207.76,65 C204.9,64.13 202,63.33 199.23,62.22 C187.92,57.66 181.05,49.51 180.06,37.12 C179.06,24.12 184.06,13.71 195.43,7.42 C212.3,-1.89 229.5,-1.09 247.04,7.82 Z" id="Shape"></path>
            <path d="M369.92,51.19 C370.812592,50.6405368 371.667798,50.0325386 372.48,49.37 C387.67,34.25 422.57,38.06 431,68.26 C434.14,79.49 434,90.69 429.8,101.61 C420.5,125.77 391.12,132.74 371.88,115.45 L368.88,112.79 C368.48,114.62 368.2,116.04 367.88,117.43 C367.07,120.62 365.36,123 361.75,122.9 C357.8,122.79 356.38,120.01 356,116.57 C355.841522,114.574185 355.791448,112.571241 355.85,110.57 L355.85,21.57 L355.85,15.92 C350.85,17.22 346.27,18.32 341.73,19.65 C337.9,20.77 335.05,19.89 333.73,15.98 C332.37,11.81 334.73,9.88 338.44,8.81 C346.76,6.45 355.02,3.88 363.34,1.53 C368.01,0.21 369.86,1.65 369.88,6.53 C369.94,19.53 369.88,32.53 369.88,45.53 C369.92,47.19 369.92,48.82 369.92,51.19 Z M418.12,83.19 L417.77,83.19 C417.77,81.86 417.86,80.52 417.77,79.19 C416.77,66.76 410.25,56.85 400.71,54.61 C390.33,52.18 380.53,54.18 372.12,61.04 C370.854234,62.2377779 370.10159,63.8792594 370.02,65.62 C369.84,76.42 369.86,87.23 370.02,98.03 C370.088513,99.6438318 370.666099,101.194563 371.67,102.46 C378.96,111.3 388.67,114.05 399.45,111.74 C409.91,109.5 414.9,101.54 416.99,91.57 C417.57,88.78 417.78,85.95 418.15,83.19 L418.12,83.19 Z" id="Shape"></path>
            <path d="M321.83,114.26 C310.64,124.08 298.13,126.77 284.52,124.11 C275.198177,122.309768 268.105638,114.695898 266.97,105.27 C265.57,94.38 269.55,85.91 278.8,80.91 C289.48,75.12 301.34,74.22 313.12,73.12 C315.25,72.92 317.37,72.7 319.94,72.45 C319.94,68.67 320.08,65.21 319.94,61.76 C319.69,57.06 316.24,55.08 312.32,54.43 C303.32,52.93 294.38,53.03 286.14,57.88 C284.42,58.88 282.67,59.88 281,60.96 C278.47,62.6 275.92,63.78 273.34,61.2 C270.76,58.62 269.64,55.09 271.79,52.14 C273.847544,49.1685858 276.66109,46.8003738 279.94,45.28 C291.777469,40.5111823 304.803007,39.5328693 317.22,42.48 C327.35,44.81 332.14,52.48 332.85,62.15 C333.75,74.42 333.58,86.77 333.85,99.09 C333.91,102.09 333.74,105.09 333.92,108.09 C334.17,112.29 336.14,113.37 339.85,111.3 C342.02,110.09 343.8,108.09 346.05,107.15 C348.05,106.33 351.05,105.5 352.49,106.44 C353.878554,107.287126 354.835544,108.690688 355.116906,110.29273 C355.398268,111.894772 354.976804,113.540428 353.96,114.81 C349.697635,121.166128 342.552968,124.985864 334.9,125 C327.92,125.14 323.84,121.05 321.83,114.26 Z M319.97,82.97 C314.56,83.63 309.58,83.84 304.8,84.92 C299.04,86.22 293.14,87.63 287.8,90.15 C282.33,92.75 280.63,97.95 281.8,103.64 C282.8,108.32 286.8,111.55 292.71,112.27 C302.32,113.43 310.71,110.35 318.27,104.65 C319.147184,103.955899 319.71208,102.941245 319.84,101.83 C320.04,95.72 319.97,89.61 319.97,82.97 L319.97,82.97 Z" id="Shape"></path>
            <path d="M696.38,111.27 C691.69,93.54 697.56,82.39 715.28,77.49 C723.86,75.12 732.93,74.49 741.78,73.09 C743.72,72.79 745.68,72.65 747.41,72.46 C747.547373,72.162761 747.66106,71.8551381 747.75,71.54 C749.05,56.83 745.9,53.54 731.12,53.6 C723.420216,53.6425025 715.917761,56.0397988 709.62,60.47 C706.73,62.42 703.86,64.12 700.79,60.75 C697.898654,57.6770151 698.014521,52.8506973 701.05,49.92 C703.556457,47.5178929 706.527184,45.6531068 709.78,44.44 C719.574755,41.0293976 730.048274,40.0345334 740.31,41.54 C753.39,43.34 760.01,49.99 760.88,63.18 C761.77,76.61 761.43,90.12 761.88,103.58 C761.97,106.4 762.95,109.2 763.52,112.01 C766.32,110.85 769.41,110.11 771.86,108.44 C778.22,104.11 781.26,104.16 782.46,109.6 C782.835302,111.840615 782.306654,114.138615 780.99,115.99 C776.774383,121.504204 770.288776,124.813187 763.35,124.99 C756.29,125.2 751.79,121.43 749.82,113.99 C742.03,121.79 732.63,124.26 722.51,124.99 C711.62,125.8 703.19,121.62 696.81,112.94 L696.38,111.27 Z M747.92,83.03 C742.92,83.57 738.44,83.63 734.14,84.63 C727.89,86.07 721.5,87.53 715.73,90.2 C710.22,92.75 708.58,98.03 709.81,103.7 C710.81,108.43 714.81,111.58 720.81,112.28 C730.22,113.38 738.52,110.46 745.96,104.88 C746.9871,104.130115 747.677014,103.005412 747.88,101.75 C748.03,95.64 747.92,89.53 747.92,83.03 Z" id="Shape"></path>
            <path d="M537.66,41.02 C562.76,41.02 579.66,58.08 579.57,83.18 C579.48,108.28 562.43,125.18 537.3,125.06 C511.74,124.98 494.85,108.15 494.9,82.82 C494.95,57.49 511.85,41.01 537.66,41.02 Z M564.24,83.72 C564.5,69.77 558.24,59.14 547.4,55.24 C533.84,50.34 518.99,55.92 513.24,68.06 C506.36,82.59 510.86,101.64 522.9,108.67 C524.628955,109.669851 526.463512,110.474776 528.37,111.07 C547.77,117.19 563.84,104.92 564.24,83.72 Z" id="Shape"></path>
            <path d="M636.64,49.9 C637.05,47.44 636.8,44.78 637.97,43.11 C639.389751,41.1202681 641.507045,39.7384924 643.9,39.24 C647.11,38.83 648.43,41.54 648.41,44.55 C648.36,50.71 648.51,56.9 647.87,63.01 C647.68,64.84 645.4,67.32 643.59,67.84 C642.22,68.24 638.9,66.34 638.49,64.84 C635.06,52.75 612.35,48.17 602.49,53.84 C600.26,55.14 598.55,58.58 598.05,61.31 C597.35,65.1 600.41,67.31 603.74,68.48 C612.04,71.42 620.42,74.13 628.74,77.13 C632.807668,78.5867773 636.776077,80.3070893 640.62,82.28 C649.16,86.71 652.4,94.15 651.62,103.44 C650.8,113.17 645.95,120.2 636.42,122.98 C621.19,127.43 606.84,124.64 594.58,117.43 C591.84,119.43 589.72,122.04 587.11,122.69 C583.84,123.51 581.28,121.27 581.21,117.6 C581.07,109.78 580.89,101.93 581.39,94.14 C581.5,92.44 584.2,89.98 586.07,89.59 C587.65,89.26 589.8,91.35 591.59,92.53 C591.999493,93.060307 592.224258,93.7100172 592.23,94.38 C595.17,111.47 614.1,116.6 628.06,113.68 C633.99,112.44 636.85,109.09 637.27,103.99 C637.81,97.38 636.05,93.7 629.94,91.32 C621.27,87.94 612.35,85.23 603.6,82.08 C599.989477,80.8402924 596.47921,79.3258631 593.1,77.55 C586.68,74.05 583.6,68.5 583.92,61.1 C584.24,53.7 587.61,47.81 594.49,44.9 C609.27,38.7 623.55,38.81 636.64,49.9 Z" id="Shape"></path>
            <path d="M444.15,110.26 L444.15,55.55 C441.04,56.18 438.15,56.7 435.38,57.33 C431.59,58.18 429.01,56.55 428.14,53.05 C427.27,49.55 429.14,47.26 432.5,46.27 C438.24,44.56 443.99,42.88 449.77,41.32 C453.72,40.26 455.77,41.82 455.97,46.03 C456.13,49.34 456.69,52.63 457.15,56.66 C458.59,55.09 459.66,53.94 460.7,52.77 C468.34,44.21 478.15,40.94 489.32,41.05 C493.06,41.05 495.24,42.87 495.2,46.88 C495.14,51.55 495.2,56.21 495.2,60.88 C495.2,64.36 493.2,66.02 489.86,66.11 C486.27,66.2 483.55,65 483.21,60.99 C483.01,58.72 483.21,56.42 483.21,53.83 C473.74,53.69 466.4,56.91 460.5,63.4 C459.577788,64.3507666 459.000438,65.582916 458.86,66.9 C458.75,81.18 458.79,95.46 458.79,110.26 C464.6,110.26 469.89,110.2 475.18,110.26 C480.23,110.33 482.09,112.14 482.02,116.7 C481.95,121.26 480.02,122.95 474.94,122.97 C460.94,123.01 446.94,123.01 432.94,122.97 C427.66,122.97 425.87,121.3 425.88,116.8 C425.88,112.09 427.83,110.34 433.23,110.26 C436.61,110.19 440.08,110.26 444.15,110.26 Z" id="Shape"></path>
            <path d="M696.38,111.27 L696.77,113.01 C697.77,121.59 696.54,123.01 687.9,123.01 L659.9,123.01 C654.9,123.01 652.78,120.95 652.96,116.64 C653.15,112.15 655.54,110.05 660.06,110.27 C662.37,110.38 664.69,110.27 667.36,110.27 L667.36,57.67 C664.65,58.31 662.08,58.75 659.61,59.55 C655.51,60.87 652.48,59.64 651.36,55.61 C650.17,51.37 652.77,49.16 656.7,48.19 C662.83,46.68 668.94,45.08 675.07,43.6 C680.34,42.32 681.78,43.42 681.79,48.8 L681.79,106.21 L681.79,109.7 L696.38,111.27 Z" id="Shape"></path>
            <path d="M695.05,6.59 C693.8,8.26 693.18,9.74 692.05,10.46 C681.2,17.46 670.32,24.46 659.28,31.24 C658.13,31.94 655.92,30.9 654.21,30.67 C654.84,29.03 655,26.81 656.21,25.84 C665.543333,18.14 675.016667,10.6066667 684.63,3.24 C686.403019,1.98895068 688.61125,1.51911413 690.74,1.94 C692.39,2.42 693.49,4.79 695.05,6.59 Z" id="Shape"></path>
        </g>
    </g>
</svg>